<svg viewBox="0 0 1288 796" xmlns="http://www.w3.org/2000/svg" xml:space="preserve" style="fill-rule:evenodd;clip-rule:evenodd;stroke-linecap:round;stroke-linejoin:round;stroke-miterlimit:1.5"><g transform="matrix(1.76776 0 0 2.2514 -87.892 -141.491)"><path style="fill:none" d="M49.719 62.846h728.322v353.353H49.719z"/><clipPath id="a"><path d="M49.719 62.846h728.322v353.353H49.719z"/></clipPath><g clip-path="url(#a)"><path d="M430.929 340.084c0-5.689-8.79-10.308-19.618-10.308H254.36c-10.828 0-19.618 4.619-19.618 10.308v185.547c0 5.689 8.79 10.308 19.618 10.308h156.951c10.828 0 19.618-4.619 19.618-10.308V340.084Z" style="fill:#fff" transform="matrix(0 .2264 .54878 0 175.241 235.607)"/><path d="M361.871 335.835c-4.994 0-9.05-3.185-9.05-7.107v-35.534c0-3.922 4.056-7.106 9.05-7.106h101.824c4.996 0 9.051 3.184 9.051 7.106v35.534c0 3.922-4.055 7.107-9.05 7.107H361.87Zm0-2.665h101.824c3.122 0 5.657-1.99 5.657-4.442v-35.534c0-2.451-2.535-4.441-5.657-4.441H361.871c-3.121 0-5.656 1.99-5.656 4.441v35.534c0 2.452 2.535 4.442 5.656 4.442Z"/><path d="M46.105 126.665h78.078" style="fill:none;stroke:#000;stroke-width:6.12px" transform="matrix(0 .42666 .56569 0 341.679 274.67)"/><circle cx="172.662" cy="87.8" r="12.012" style="fill:#898992" transform="matrix(0 .3328 .42385 0 387.52 266.829)"/><circle cx="172.662" cy="87.8" r="12.012" style="fill:#898992" transform="matrix(0 .3328 .42385 0 419.236 266.829)"/><circle cx="172.662" cy="87.8" r="12.012" style="fill:#898992" transform="matrix(0 .3328 .42385 0 387.52 240.05)"/><circle cx="172.662" cy="87.8" r="12.012" style="fill:#898992" transform="matrix(0 .3328 .42385 0 419.236 240.05)"/><circle cx="172.662" cy="87.8" r="12.012" transform="matrix(0 .3328 -.42385 0 421.994 253.499)"/><path d="m59.654 581.107-22.5-22.5 22.5-22.5" style="fill:none;stroke:#000;stroke-width:15px;stroke-linejoin:miter;stroke-miterlimit:10" transform="matrix(.56569 0 0 .44417 49.72 62.846)"/><path d="M101.548 558.607H37.154" style="fill:none;stroke:#000;stroke-width:15px" transform="matrix(.56569 0 0 .44417 49.72 62.846)"/><path d="m453.335 51.664 22.5-22.5 22.5 22.5" style="fill:none;stroke:#000;stroke-width:15px;stroke-linejoin:miter;stroke-miterlimit:10" transform="matrix(.56569 0 0 .44417 49.72 62.846)"/><path d="M475.835 93.557V29.164" style="fill:none;stroke:#000;stroke-width:15px" transform="matrix(.56569 0 0 .44417 49.72 62.846)"/><path d="m498.335 743.537-22.5 22.5-22.5-22.5" style="fill:none;stroke:#000;stroke-width:15px;stroke-linejoin:miter;stroke-miterlimit:10" transform="matrix(.56569 0 0 .44417 49.72 62.847)"/><path d="M475.835 701.643v64.394" style="fill:none;stroke:#000;stroke-width:15px" transform="matrix(.56569 0 0 .44417 49.72 62.847)"/><path d="m1228.22 536.107 22.5 22.5-22.5 22.5" style="fill:none;stroke:#000;stroke-width:15px;stroke-linejoin:miter;stroke-miterlimit:10" transform="matrix(.56569 0 0 .44417 49.72 62.846)"/><path d="M1186.33 558.607h64.39" style="fill:none;stroke:#000;stroke-width:15px" transform="matrix(.56569 0 0 .44417 49.72 62.846)"/><path d="M430.929 340.084c0-5.689-8.79-10.308-19.618-10.308H254.36c-10.828 0-19.618 4.619-19.618 10.308v185.547c0 5.689 8.79 10.308 19.618 10.308h156.951c10.828 0 19.618-4.619 19.618-10.308V340.084Z" style="fill:#fff" transform="matrix(.28834 0 0 .43089 222.924 124.447)"/><path d="M350.572 270.986v79.95c0 3.923-4.056 7.107-9.05 7.107h-45.256c-4.995 0-9.05-3.184-9.05-7.107v-79.95c0-3.922 4.055-7.107 9.05-7.107h45.255c4.995 0 9.051 3.185 9.051 7.107Zm-3.394 0c0-2.452-2.535-4.442-5.657-4.442h-45.255c-3.122 0-5.657 1.99-5.657 4.442v79.95c0 2.451 2.535 4.442 5.657 4.442h45.255c3.122 0 5.657-1.99 5.657-4.442v-79.95Z"/><path d="M46.105 126.665h78.078" style="fill:none;stroke:#000;stroke-width:6.12px" transform="matrix(.54339 0 0 .44417 272.673 255.131)"/><circle cx="172.662" cy="87.8" r="12.012" transform="matrix(.42385 0 0 .3328 245.71 303.73)"/><circle cx="172.662" cy="87.8" r="12.012" transform="matrix(.42385 0 0 -.3328 245.71 318.193)"/><path d="M430.929 340.084c0-5.689-8.79-10.308-19.618-10.308H254.36c-10.828 0-19.618 4.619-19.618 10.308v185.547c0 5.689 8.79 10.308 19.618 10.308h156.951c10.828 0 19.618-4.619 19.618-10.308V340.084Z" style="fill:#fff" transform="matrix(.28834 0 0 .43089 411.166 124.447)"/><path d="M538.815 270.986v79.95c0 3.923-4.056 7.107-9.051 7.107h-45.256c-4.995 0-9.05-3.184-9.05-7.107v-79.95c0-3.922 4.055-7.107 9.05-7.107h45.256c4.995 0 9.05 3.185 9.05 7.107Zm-3.395 0c0-2.452-2.534-4.442-5.656-4.442h-45.256c-3.122 0-5.656 1.99-5.656 4.442v79.95c0 2.451 2.534 4.442 5.656 4.442h45.256c3.122 0 5.656-1.99 5.656-4.442v-79.95Z"/><path d="M46.105 126.665h78.078" style="fill:none;stroke:#000;stroke-width:6.12px" transform="matrix(.54339 0 0 .44417 460.916 255.131)"/><circle cx="172.662" cy="87.8" r="12.012" style="fill:#898992" transform="matrix(.42385 0 0 .3328 450.93 291.124)"/><circle cx="172.662" cy="87.8" r="12.012" style="fill:#898992" transform="matrix(.42385 0 0 .3328 450.93 316.027)"/><circle cx="172.662" cy="87.8" r="12.012" style="fill:#898992" transform="matrix(.42385 0 0 .3328 416.824 291.124)"/><circle cx="172.662" cy="87.8" r="12.012" style="fill:#898992" transform="matrix(.42385 0 0 .3328 416.824 316.027)"/><circle cx="172.662" cy="87.8" r="12.012" style="fill:#898992" transform="matrix(.42385 0 0 -.3328 450.93 330.798)"/><circle cx="172.662" cy="87.8" r="12.012" style="fill:#898992" transform="matrix(.42385 0 0 -.3328 450.93 305.895)"/><circle cx="172.662" cy="87.8" r="12.012" style="fill:#898992" transform="matrix(.42385 0 0 -.3328 416.824 330.798)"/><circle cx="172.662" cy="87.8" r="12.012" style="fill:#898992" transform="matrix(.42385 0 0 -.3328 416.824 305.895)"/><path d="M430.929 340.084c0-5.689-8.79-10.308-19.618-10.308H254.36c-10.828 0-19.618 4.619-19.618 10.308v185.547c0 5.689 8.79 10.308 19.618 10.308h156.951c10.828 0 19.618-4.619 19.618-10.308V340.084Z" style="fill:#fff" transform="matrix(0 .2264 -.54878 0 838.194 235.607)"/><path d="M651.564 335.835H549.74c-4.996 0-9.051-3.185-9.051-7.107v-35.534c0-3.922 4.055-7.106 9.05-7.106h101.825c4.994 0 9.05 3.184 9.05 7.106v35.534c0 3.922-4.056 7.107-9.05 7.107Zm0-2.665c3.121 0 5.656-1.99 5.656-4.442v-35.534c0-2.451-2.535-4.441-5.656-4.441H549.74c-3.122 0-5.657 1.99-5.657 4.441v35.534c0 2.452 2.535 4.442 5.657 4.442h101.824Z"/><path d="M46.105 126.665h78.078" style="fill:none;stroke:#000;stroke-width:6.12px" transform="matrix(0 .42666 -.56569 0 671.756 274.67)"/><circle cx="172.662" cy="87.8" r="12.012" style="fill:#898992" transform="matrix(0 .3328 -.42385 0 625.916 266.829)"/><circle cx="172.662" cy="87.8" r="12.012" style="fill:#898992" transform="matrix(0 .3328 -.42385 0 594.2 266.829)"/><circle cx="172.662" cy="87.8" r="12.012" style="fill:#898992" transform="matrix(0 .3328 -.42385 0 625.916 240.05)"/><circle cx="172.662" cy="87.8" r="12.012" style="fill:#898992" transform="matrix(0 .3328 -.42385 0 594.2 240.05)"/><circle cx="172.662" cy="87.8" r="12.012" style="fill:#f7e400" transform="matrix(0 .3328 .42385 0 575.185 266.16)"/><circle cx="172.662" cy="87.8" r="12.012" style="fill:#f7e400" transform="matrix(0 .3328 .42385 0 607.165 240.372)"/><circle cx="172.662" cy="87.8" r="12.012" style="fill:#f7e400" transform="matrix(0 .3328 .42385 0 591.262 252.937)"/><path d="M430.929 340.084c0-5.689-8.79-10.308-19.618-10.308H254.36c-10.828 0-19.618 4.619-19.618 10.308v185.547c0 5.689 8.79 10.308 19.618 10.308h156.951c10.828 0 19.618-4.619 19.618-10.308V340.084Z" style="fill:#fff" transform="matrix(0 -.2264 .54878 0 -12.547 386.315)"/><path d="M174.083 286.087h101.824c4.996 0 9.051 3.185 9.051 7.107v35.534c0 3.922-4.055 7.106-9.05 7.106H174.082c-4.994 0-9.05-3.184-9.05-7.106v-35.534c0-3.922 4.056-7.107 9.05-7.107Zm0 2.666c-3.121 0-5.656 1.99-5.656 4.441v35.534c0 2.451 2.535 4.441 5.656 4.441h101.824c3.122 0 5.657-1.99 5.657-4.441v-35.534c0-2.451-2.535-4.441-5.657-4.441H174.083Z"/><path d="M46.105 126.665h78.078" style="fill:none;stroke:#000;stroke-width:6.12px" transform="matrix(0 -.42666 .56569 0 153.891 347.252)"/><circle cx="172.662" cy="87.8" r="12.012" transform="matrix(0 -.3328 .42385 0 215.785 368.423)"/><circle cx="172.662" cy="87.8" r="12.012" style="fill:#95352e" transform="matrix(0 -.3328 -.42385 0 250.58 354.915)"/><circle cx="172.662" cy="87.8" r="12.012" style="fill:#95352e" transform="matrix(0 -.3328 -.42385 0 218.226 381.247)"/><path d="M430.929 340.084c0-5.689-8.79-10.308-19.618-10.308H254.36c-10.828 0-19.618 4.619-19.618 10.308v185.547c0 5.689 8.79 10.308 19.618 10.308h156.951c10.828 0 19.618-4.619 19.618-10.308V340.084Z" style="fill:#fff" transform="matrix(.28834 0 0 .43089 222.924 28.885)"/><path d="M350.572 175.424v79.95c0 3.923-4.056 7.107-9.05 7.107h-45.256c-4.995 0-9.05-3.184-9.05-7.107v-79.95c0-3.922 4.055-7.107 9.05-7.107h45.255c4.995 0 9.051 3.185 9.051 7.107Zm-3.394 0c0-2.452-2.535-4.442-5.657-4.442h-45.255c-3.122 0-5.657 1.99-5.657 4.442v79.95c0 2.451 2.535 4.442 5.657 4.442h45.255c3.122 0 5.657-1.99 5.657-4.442v-79.95Z"/><path d="M46.105 126.665h78.078" style="fill:none;stroke:#000;stroke-width:6.12px" transform="matrix(.54339 0 0 .44417 272.673 159.569)"/><circle cx="172.662" cy="87.8" r="12.012" transform="matrix(.42385 0 0 .3328 245.71 208.167)"/><circle cx="172.662" cy="87.8" r="12.012" style="fill:#0e7746" transform="matrix(.42385 0 0 -.3328 262.914 235.225)"/><circle cx="172.662" cy="87.8" r="12.012" style="fill:#0e7746" transform="matrix(.42385 0 0 -.3328 245.71 222.388)"/><circle cx="172.662" cy="87.8" r="12.012" style="fill:#0e7746" transform="matrix(.42385 0 0 -.3328 262.914 210.322)"/><circle cx="172.662" cy="87.8" r="12.012" style="fill:#0e7746" transform="matrix(.42385 0 0 -.3328 228.808 235.225)"/><circle cx="172.662" cy="87.8" r="12.012" style="fill:#0e7746" transform="matrix(.42385 0 0 -.3328 228.808 210.322)"/><path d="M430.929 340.084c0-5.689-8.79-10.308-19.618-10.308H254.36c-10.828 0-19.618 4.619-19.618 10.308v185.547c0 5.689 8.79 10.308 19.618 10.308h156.951c10.828 0 19.618-4.619 19.618-10.308V340.084Z" style="fill:#fff" transform="matrix(0 .2264 -.54878 0 556.436 66.86)"/><path d="M369.806 167.088H267.982c-4.996 0-9.051-3.185-9.051-7.107v-35.534c0-3.922 4.055-7.106 9.05-7.106h101.825c4.994 0 9.05 3.184 9.05 7.106v35.534c0 3.922-4.056 7.107-9.05 7.107Zm0-2.666c3.121 0 5.656-1.99 5.656-4.441v-35.534c0-2.451-2.535-4.441-5.656-4.441H267.982c-3.122 0-5.657 1.99-5.657 4.441v35.534c0 2.451 2.535 4.441 5.657 4.441h101.824Z"/><path d="M46.105 126.665h78.078" style="fill:none;stroke:#000;stroke-width:6.12px" transform="matrix(0 .42666 -.56569 0 389.998 105.923)"/><circle cx="172.662" cy="87.8" r="12.012" transform="matrix(0 .3328 -.42385 0 328.104 84.752)"/><circle cx="172.662" cy="87.8" r="12.012" style="fill:#0e7746" transform="matrix(0 .3328 .42385 0 293.643 98.26)"/><circle cx="172.662" cy="87.8" r="12.012" style="fill:#0e7746" transform="matrix(0 .3328 .42385 0 309.992 84.752)"/><circle cx="172.662" cy="87.8" r="12.012" style="fill:#0e7746" transform="matrix(0 .3328 .42385 0 325.36 98.26)"/><circle cx="172.662" cy="87.8" r="12.012" style="fill:#0e7746" transform="matrix(0 .3328 .42385 0 293.643 71.48)"/><circle cx="172.662" cy="87.8" r="12.012" style="fill:#0e7746" transform="matrix(0 .3328 .42385 0 325.36 71.48)"/><circle cx="172.662" cy="87.8" r="12.012" style="fill:#0e7746" transform="matrix(0 -.3328 -.42385 0 344.144 186.169)"/><circle cx="172.662" cy="87.8" r="12.012" style="fill:#0e7746" transform="matrix(0 -.3328 -.42385 0 327.794 199.676)"/><circle cx="172.662" cy="87.8" r="12.012" style="fill:#0e7746" transform="matrix(0 -.3328 -.42385 0 312.427 186.169)"/><circle cx="172.662" cy="87.8" r="12.012" style="fill:#0e7746" transform="matrix(0 -.3328 -.42385 0 344.144 212.947)"/><circle cx="172.662" cy="87.8" r="12.012" style="fill:#0e7746" transform="matrix(0 -.3328 -.42385 0 312.427 212.947)"/><path d="m193.993 283.385 6.687 20.582h21.641l-17.508 12.72 6.687 20.581-17.507-12.72-17.508 12.72 6.687-20.581-17.507-12.72h21.64l6.688-20.582Z" style="fill:#144073" transform="matrix(.56569 0 0 .44417 125.473 2.712)"/><path d="m193.993 283.385 6.687 20.582h21.641l-17.508 12.72 6.687 20.581-17.507-12.72-17.508 12.72 6.687-20.581-17.507-12.72h21.64l6.688-20.582Z" style="fill:#144073" transform="matrix(.56569 0 0 .44417 293.809 2.712)"/><path d="m193.993 283.385 6.687 20.582h21.641l-17.508 12.72 6.687 20.581-17.507-12.72-17.508 12.72 6.687-20.581-17.507-12.72h21.64l6.688-20.582Z" style="fill:#144073" transform="matrix(.56569 0 0 .44417 30.7 173.124)"/><path d="m193.993 283.385 6.687 20.582h21.641l-17.508 12.72 6.687 20.581-17.507-12.72-17.508 12.72 6.687-20.581-17.507-12.72h21.64l6.688-20.582Z" style="fill:#144073" transform="matrix(.56569 0 0 .44417 575.677 173.124)"/><text x="1140.08" y="455.698" style="font-family:&quot;ShareTechMono-Regular&quot;,&quot;Share Tech Mono&quot;,monospace;font-size:48px;fill:#144073" transform="matrix(.56569 0 0 .44417 -417.432 -83.068)">5</text><text x="1140.08" y="455.698" style="font-family:&quot;ShareTechMono-Regular&quot;,&quot;Share Tech Mono&quot;,monospace;font-size:48px;fill:#144073" transform="matrix(.56569 0 0 .44417 -249.097 -83.068)">5</text><text x="1140.08" y="455.698" style="font-family:&quot;ShareTechMono-Regular&quot;,&quot;Share Tech Mono&quot;,monospace;font-size:48px;fill:#144073" transform="matrix(.56569 0 0 .44417 -512.206 88.405)">2</text><text x="1140.08" y="455.698" style="font-family:&quot;ShareTechMono-Regular&quot;,&quot;Share Tech Mono&quot;,monospace;font-size:48px;fill:#144073" transform="matrix(.56569 0 0 .44417 32.772 88.405)">3</text><path d="M524.073 34.202c0-9.167-8.739-16.61-19.503-16.61H296.664c-10.764 0-19.502 7.443-19.502 16.61v77.516c0 9.167 8.738 16.61 19.502 16.61H504.57c10.764 0 19.503-7.443 19.503-16.61V34.202Z" style="fill:#badfff" transform="matrix(.54933 0 0 .50641 -96.736 57.844)"/><text x="491.783" y="102.235" style="font-family:&quot;SourceSansPro-Bold&quot;,&quot;Source Sans Pro&quot;,sans-serif;font-weight:700;font-size:48px" transform="matrix(.56569 0 0 .44417 -207.344 46.174)">t<tspan x="509.303px 534.695px 552.119px" y="102.235px 102.235px 102.235px">ota</tspan>l: 15</text><text x="491.783" y="150.235" style="font-family:&quot;SourceSansPro-Bold&quot;,&quot;Source Sans Pro&quot;,sans-serif;font-weight:700;font-size:48px" transform="matrix(.56569 0 0 .44417 -207.344 46.174)">sc<tspan x="534.119px 560.759px 579.383px" y="150.235px 150.235px 150.235px">ore</tspan>: 15</text></g></g></svg>