<svg viewBox="0 0 1305 776" xmlns="http://www.w3.org/2000/svg" xml:space="preserve" style="fill-rule:evenodd;clip-rule:evenodd;stroke-linecap:round;stroke-linejoin:round;stroke-miterlimit:1.5"><g transform="matrix(1.79089 0 0 2.19334 -89.042 -137.842)"><path style="fill:none" d="M49.719 62.846h728.322v353.353H49.719z"/><clipPath id="a"><path d="M49.719 62.846h728.322v353.353H49.719z"/></clipPath><g clip-path="url(#a)"><path d="M430.929 340.084c0-5.689-8.79-10.308-19.618-10.308H254.36c-10.828 0-19.618 4.619-19.618 10.308v185.547c0 5.689 8.79 10.308 19.618 10.308h156.951c10.828 0 19.618-4.619 19.618-10.308V340.084Z" style="fill:#fff" transform="matrix(0 .2324 .5417 0 178.513 225.74)"/><path d="M362.734 328.62c-4.93 0-8.934-3.27-8.934-7.295v-36.474c0-4.026 4.003-7.295 8.934-7.295h100.509c4.93 0 8.934 3.269 8.934 7.295v36.474c0 4.026-4.003 7.295-8.934 7.295h-100.51Zm0-2.736h100.509c3.082 0 5.584-2.043 5.584-4.559v-36.474c0-2.517-2.502-4.56-5.584-4.56h-100.51c-3.08 0-5.583 2.043-5.583 4.56v36.474c0 2.516 2.502 4.559 5.584 4.559Z"/><path d="M46.105 126.665h78.078" style="fill:none;stroke:#000;stroke-width:6.12px" transform="matrix(0 .43795 .55838 0 342.802 265.836)"/><circle cx="172.662" cy="87.8" r="12.012" style="fill:#898992" transform="matrix(0 .34161 .41838 0 388.05 257.787)"/><circle cx="172.662" cy="87.8" r="12.012" style="fill:#898992" transform="matrix(0 .34161 .41838 0 419.357 257.787)"/><circle cx="172.662" cy="87.8" r="12.012" style="fill:#898992" transform="matrix(0 .34161 .41838 0 388.05 230.3)"/><circle cx="172.662" cy="87.8" r="12.012" style="fill:#898992" transform="matrix(0 .34161 .41838 0 419.357 230.3)"/><circle cx="172.662" cy="87.8" r="12.012" transform="matrix(0 .34161 -.41838 0 422.08 244.105)"/><path d="m75.418 549.433-22.5-22.5 22.5-22.5" style="fill:none;stroke:#000;stroke-width:15px;stroke-linejoin:miter;stroke-miterlimit:10" transform="matrix(.55838 0 0 .45593 49.72 62.846)"/><path d="M117.311 526.933H52.918" style="fill:none;stroke:#000;stroke-width:15px" transform="matrix(.55838 0 0 .45593 49.72 62.846)"/><path d="m461.255 61.556 22.5-22.5 22.5 22.5" style="fill:none;stroke:#000;stroke-width:15px;stroke-linejoin:miter;stroke-miterlimit:10" transform="matrix(.55838 0 0 .45593 49.72 62.846)"/><path d="M483.755 103.449V39.056" style="fill:none;stroke:#000;stroke-width:15px" transform="matrix(.55838 0 0 .45593 49.72 62.846)"/><path d="m506.255 711.863-22.5 22.5-22.5-22.5" style="fill:none;stroke:#000;stroke-width:15px;stroke-linejoin:miter;stroke-miterlimit:10" transform="matrix(.55838 0 0 .45593 49.72 62.844)"/><path d="M483.755 669.97v64.393" style="fill:none;stroke:#000;stroke-width:15px" transform="matrix(.55838 0 0 .45593 49.72 62.844)"/><path d="m1230.98 504.433 22.5 22.5-22.5 22.5" style="fill:none;stroke:#000;stroke-width:15px;stroke-linejoin:miter;stroke-miterlimit:10" transform="matrix(.55838 0 0 .45593 49.719 62.846)"/><path d="M1189.09 526.933h64.39" style="fill:none;stroke:#000;stroke-width:15px" transform="matrix(.55838 0 0 .45593 49.719 62.846)"/><path d="M430.929 340.084c0-5.689-8.79-10.308-19.618-10.308H254.36c-10.828 0-19.618 4.619-19.618 10.308v185.547c0 5.689 8.79 10.308 19.618 10.308h156.951c10.828 0 19.618-4.619 19.618-10.308V340.084Z" style="fill:#fff" transform="matrix(.28462 0 0 .4423 225.11 111.637)"/><path d="M351.11 262.054v82.067c0 4.026-4.004 7.295-8.934 7.295h-44.671c-4.93 0-8.934-3.269-8.934-7.295v-82.067c0-4.025 4.003-7.294 8.934-7.294h44.67c4.931 0 8.935 3.269 8.935 7.294Zm-3.35 0c0-2.516-2.502-4.559-5.584-4.559h-44.671c-3.082 0-5.584 2.043-5.584 4.56v82.066c0 2.516 2.502 4.56 5.584 4.56h44.67c3.083 0 5.584-2.044 5.584-4.56v-82.067Z"/><path d="M46.105 126.665h78.078" style="fill:none;stroke:#000;stroke-width:6.12px" transform="matrix(.53637 0 0 .45593 274.217 245.78)"/><circle cx="172.662" cy="87.8" r="12.012" transform="matrix(.41838 0 0 .34161 247.602 295.665)"/><circle cx="172.662" cy="87.8" r="12.012" transform="matrix(.41838 0 0 -.34161 247.602 310.511)"/><path d="M430.929 340.084c0-5.689-8.79-10.308-19.618-10.308H254.36c-10.828 0-19.618 4.619-19.618 10.308v185.547c0 5.689 8.79 10.308 19.618 10.308h156.951c10.828 0 19.618-4.619 19.618-10.308V340.084Z" style="fill:#fff" transform="matrix(.28462 0 0 .4423 411.392 111.637)"/><path d="M537.392 262.054v82.067c0 4.026-4.003 7.295-8.934 7.295h-44.67c-4.931 0-8.935-3.269-8.935-7.295v-82.067c0-4.025 4.004-7.294 8.934-7.294h44.671c4.93 0 8.934 3.269 8.934 7.294Zm-3.35 0c0-2.516-2.502-4.559-5.584-4.559h-44.67c-3.083 0-5.584 2.043-5.584 4.56v82.066c0 2.516 2.501 4.56 5.583 4.56h44.671c3.082 0 5.584-2.044 5.584-4.56v-82.067Z"/><path d="M46.105 126.665h78.078" style="fill:none;stroke:#000;stroke-width:6.12px" transform="matrix(.53637 0 0 .45593 460.5 245.78)"/><circle cx="172.662" cy="87.8" r="12.012" style="fill:#898992" transform="matrix(.41838 0 0 .34161 450.642 282.726)"/><circle cx="172.662" cy="87.8" r="12.012" style="fill:#898992" transform="matrix(.41838 0 0 .34161 450.642 308.288)"/><circle cx="172.662" cy="87.8" r="12.012" style="fill:#898992" transform="matrix(.41838 0 0 .34161 416.977 282.726)"/><circle cx="172.662" cy="87.8" r="12.012" style="fill:#898992" transform="matrix(.41838 0 0 .34161 416.977 308.288)"/><circle cx="172.662" cy="87.8" r="12.012" style="fill:#898992" transform="matrix(.41838 0 0 -.34161 450.642 323.45)"/><circle cx="172.662" cy="87.8" r="12.012" style="fill:#898992" transform="matrix(.41838 0 0 -.34161 450.642 297.888)"/><circle cx="172.662" cy="87.8" r="12.012" style="fill:#898992" transform="matrix(.41838 0 0 -.34161 416.977 323.45)"/><circle cx="172.662" cy="87.8" r="12.012" style="fill:#898992" transform="matrix(.41838 0 0 -.34161 416.977 297.888)"/><path d="M430.929 340.084c0-5.689-8.79-10.308-19.618-10.308H254.36c-10.828 0-19.618 4.619-19.618 10.308v185.547c0 5.689 8.79 10.308 19.618 10.308h156.951c10.828 0 19.618-4.619 19.618-10.308V340.084Z" style="fill:#fff" transform="matrix(0 .2324 -.5417 0 833.465 225.74)"/><path d="M649.244 328.62H548.735c-4.93 0-8.934-3.27-8.934-7.295v-36.474c0-4.026 4.003-7.295 8.934-7.295h100.51c4.93 0 8.933 3.269 8.933 7.295v36.474c0 4.026-4.003 7.295-8.934 7.295Zm0-2.736c3.082 0 5.584-2.043 5.584-4.559v-36.474c0-2.517-2.502-4.56-5.584-4.56H548.735c-3.082 0-5.584 2.043-5.584 4.56v36.474c0 2.516 2.502 4.559 5.584 4.559h100.51Z"/><path d="M46.105 126.665h78.078" style="fill:none;stroke:#000;stroke-width:6.12px" transform="matrix(0 .43795 -.55838 0 669.176 265.836)"/><circle cx="172.662" cy="87.8" r="12.012" style="fill:#898992" transform="matrix(0 .34161 -.41838 0 623.928 257.787)"/><circle cx="172.662" cy="87.8" r="12.012" style="fill:#898992" transform="matrix(0 .34161 -.41838 0 592.62 257.787)"/><circle cx="172.662" cy="87.8" r="12.012" style="fill:#898992" transform="matrix(0 .34161 -.41838 0 623.928 230.3)"/><circle cx="172.662" cy="87.8" r="12.012" style="fill:#898992" transform="matrix(0 .34161 -.41838 0 592.62 230.3)"/><circle cx="172.662" cy="87.8" r="12.012" style="fill:#f7e400" transform="matrix(0 .34161 .41838 0 573.852 257.102)"/><circle cx="172.662" cy="87.8" r="12.012" style="fill:#f7e400" transform="matrix(0 .34161 .41838 0 605.42 230.63)"/><circle cx="172.662" cy="87.8" r="12.012" style="fill:#f7e400" transform="matrix(0 .34161 .41838 0 589.72 243.527)"/><path d="M430.929 340.084c0-5.689-8.79-10.308-19.618-10.308H254.36c-10.828 0-19.618 4.619-19.618 10.308v185.547c0 5.689 8.79 10.308 19.618 10.308h156.951c10.828 0 19.618-4.619 19.618-10.308V340.084Z" style="fill:#fff" transform="matrix(0 -.2324 .5417 0 -7.408 380.436)"/><path d="M176.813 277.556h100.509c4.93 0 8.934 3.268 8.934 7.294v36.475c0 4.026-4.003 7.294-8.934 7.294h-100.51c-4.93 0-8.933-3.268-8.933-7.294V284.85c0-4.026 4.003-7.294 8.934-7.294Zm0 2.735c-3.082 0-5.584 2.043-5.584 4.56v36.474c0 2.516 2.502 4.559 5.584 4.559h100.509c3.082 0 5.584-2.043 5.584-4.56V284.85c0-2.516-2.502-4.559-5.584-4.559h-100.51Z"/><path d="M46.105 126.665h78.078" style="fill:none;stroke:#000;stroke-width:6.12px" transform="matrix(0 -.43795 .55838 0 156.881 340.34)"/><circle cx="172.662" cy="87.8" r="12.012" transform="matrix(0 -.34161 .41838 0 217.976 362.07)"/><circle cx="172.662" cy="87.8" r="12.012" style="fill:#95352e" transform="matrix(0 -.34161 -.41838 0 252.322 348.205)"/><circle cx="172.662" cy="87.8" r="12.012" style="fill:#95352e" transform="matrix(0 -.34161 -.41838 0 220.385 375.234)"/><path d="M430.929 340.084c0-5.689-8.79-10.308-19.618-10.308H254.36c-10.828 0-19.618 4.619-19.618 10.308v185.547c0 5.689 8.79 10.308 19.618 10.308h156.951c10.828 0 19.618-4.619 19.618-10.308V340.084Z" style="fill:#fff" transform="matrix(.28462 0 0 .4423 225.11 13.545)"/><path d="M351.11 163.962v82.067c0 4.026-4.004 7.295-8.934 7.295h-44.671c-4.93 0-8.934-3.269-8.934-7.295v-82.067c0-4.025 4.003-7.294 8.934-7.294h44.67c4.931 0 8.935 3.269 8.935 7.294Zm-3.35 0c0-2.516-2.502-4.559-5.584-4.559h-44.671c-3.082 0-5.584 2.043-5.584 4.56v82.066c0 2.516 2.502 4.56 5.584 4.56h44.67c3.083 0 5.584-2.044 5.584-4.56v-82.067Z"/><path d="M46.105 126.665h78.078" style="fill:none;stroke:#000;stroke-width:6.12px" transform="matrix(.53637 0 0 .45593 274.217 147.688)"/><circle cx="172.662" cy="87.8" r="12.012" transform="matrix(.41838 0 0 .34161 247.602 197.573)"/><circle cx="172.662" cy="87.8" r="12.012" style="fill:#0e7746" transform="matrix(.41838 0 0 -.34161 264.583 225.347)"/><circle cx="172.662" cy="87.8" r="12.012" style="fill:#0e7746" transform="matrix(.41838 0 0 -.34161 247.602 212.17)"/><circle cx="172.662" cy="87.8" r="12.012" style="fill:#0e7746" transform="matrix(.41838 0 0 -.34161 264.583 199.784)"/><circle cx="172.662" cy="87.8" r="12.012" style="fill:#0e7746" transform="matrix(.41838 0 0 -.34161 230.918 225.347)"/><circle cx="172.662" cy="87.8" r="12.012" style="fill:#0e7746" transform="matrix(.41838 0 0 -.34161 230.918 199.784)"/><path d="M524.073 34.202c0-9.167-8.739-16.61-19.503-16.61H296.664c-10.764 0-19.502 7.443-19.502 16.61v77.516c0 9.167 8.738 16.61 19.502 16.61H504.57c10.764 0 19.503-7.443 19.503-16.61V34.202Z" style="fill:#badfff" transform="matrix(.54224 0 0 .51981 -94.844 57.712)"/><text x="491.783" y="102.235" style="font-family:'Source Sans Pro',sans-serif;font-weight:700;font-size:48px" transform="matrix(.55838 0 0 .45593 -204.025 45.733)">t<tspan x="509.303px 534.695px 552.119px" y="102.235px 102.235px 102.235px">ota</tspan>l: 10</text><text x="491.783" y="150.235" style="font-family:'Source Sans Pro',sans-serif;font-weight:700;font-size:48px" transform="matrix(.55838 0 0 .45593 -204.025 45.733)">sc<tspan x="534.119px 560.759px 579.383px" y="150.235px 150.235px 150.235px">ore</tspan>: 10</text><path d="m193.993 283.385 6.687 20.582h21.641l-17.508 12.72 6.687 20.581-17.507-12.72-17.508 12.72 6.687-20.581-17.507-12.72h21.64l6.688-20.582Z" style="fill:#144073" transform="matrix(.55838 0 0 .45593 37.353 161.602)"/><path d="m193.993 283.385 6.687 20.582h21.641l-17.508 12.72 6.687 20.581-17.507-12.72-17.508 12.72 6.687-20.581-17.507-12.72h21.64l6.688-20.582Z" style="fill:#144073" transform="matrix(.55838 0 0 .45593 574.833 161.602)"/><path d="m193.993 283.385 6.687 20.582h21.641l-17.508 12.72 6.687 20.581-17.507-12.72-17.508 12.72 6.687-20.581-17.507-12.72h21.64l6.688-20.582Z" style="fill:#144073" transform="matrix(.55838 0 0 .45593 211.203 -7.135)"/><text x="1140.08" y="455.698" style="font-family:'Share Tech Mono',monospace;font-size:48px;fill:#144073" transform="matrix(.55838 0 0 .45593 -498.542 73.267)">2</text><text x="1140.08" y="455.698" style="font-family:'Share Tech Mono',monospace;font-size:48px;fill:#144073" transform="matrix(.55838 0 0 .45593 -294.049 -63.51)">5</text><text x="1140.08" y="455.698" style="font-family:'Share Tech Mono',monospace;font-size:48px;fill:#144073" transform="matrix(.55838 0 0 .45593 38.938 73.267)">3</text></g></g></svg>
