<svg viewBox="0 0 1383 515" xmlns="http://www.w3.org/2000/svg" xml:space="preserve" style="fill-rule:evenodd;clip-rule:evenodd;stroke-linecap:round;stroke-linejoin:round;stroke-miterlimit:1.5"><g transform="matrix(1.89822 0 0 1.45695 -94.378 -91.563)"><path style="fill:none" d="M49.719 62.846h728.322v353.353H49.719z"/><clipPath id="a"><path d="M49.719 62.846h728.322v353.353H49.719z"/></clipPath><g clip-path="url(#a)"><path d="M430.929 340.084c0-5.689-8.79-10.308-19.618-10.308H254.36c-10.828 0-19.618 4.619-19.618 10.308v185.547c0 5.689 8.79 10.308 19.618 10.308h156.951c10.828 0 19.618-4.619 19.618-10.308V340.084Z" style="fill:#fff" transform="matrix(0 .34985 .51106 0 192.597 119.556)"/><path d="M366.4 274.435c-4.651 0-8.428-4.921-8.428-10.982v-54.91c0-6.06 3.777-10.981 8.429-10.981h94.825c4.652 0 8.43 4.92 8.43 10.982v54.91c0 6.06-3.778 10.98-8.43 10.98h-94.825Zm0-4.119h94.826c2.908 0 5.268-3.075 5.268-6.863v-54.91c0-3.788-2.36-6.863-5.268-6.863h-94.825c-2.908 0-5.268 3.075-5.268 6.864v54.91c0 3.787 2.36 6.862 5.268 6.862Z"/><path d="M46.105 126.665h78.078" style="fill:none;stroke:#000;stroke-width:6.12px" transform="matrix(0 .65931 .5268 0 347.596 179.918)"/><circle cx="172.662" cy="87.8" r="12.012" style="fill:#898992" transform="matrix(0 .51427 .39472 0 390.286 167.802)"/><circle cx="172.662" cy="87.8" r="12.012" style="fill:#898992" transform="matrix(0 .51427 .39472 0 419.822 167.802)"/><circle cx="172.662" cy="87.8" r="12.012" style="fill:#898992" transform="matrix(0 .51427 .39472 0 390.286 126.42)"/><circle cx="172.662" cy="87.8" r="12.012" style="fill:#898992" transform="matrix(0 .51427 .39472 0 419.822 126.42)"/><circle cx="172.662" cy="87.8" r="12.012" transform="matrix(0 .51427 -.39472 0 422.391 147.203)"/><path d="m115.976 274.775-22.5-22.5 22.5-22.5" style="fill:none;stroke:#000;stroke-width:15px;stroke-linejoin:miter;stroke-miterlimit:10" transform="matrix(.5268 0 0 .68637 49.72 62.846)"/><path d="M157.869 252.275H93.476" style="fill:none;stroke:#000;stroke-width:15px" transform="matrix(.5268 0 0 .68637 49.72 62.846)"/><path d="m501.909 68.666 22.5-22.5 22.5 22.5" style="fill:none;stroke:#000;stroke-width:15px;stroke-linejoin:miter;stroke-miterlimit:10" transform="matrix(.5268 0 0 .68637 49.72 62.846)"/><path d="M524.409 110.559V46.166" style="fill:none;stroke:#000;stroke-width:15px" transform="matrix(.5268 0 0 .68637 49.72 62.846)"/><path d="m546.909 437.205-22.5 22.5-22.5-22.5" style="fill:none;stroke:#000;stroke-width:15px;stroke-linejoin:miter;stroke-miterlimit:10" transform="matrix(.5268 0 0 .68637 49.72 62.846)"/><path d="M524.409 395.312v64.393" style="fill:none;stroke:#000;stroke-width:15px" transform="matrix(.5268 0 0 .68637 49.72 62.846)"/><path d="m1266.54 229.775 22.5 22.5-22.5 22.5" style="fill:none;stroke:#000;stroke-width:15px;stroke-linejoin:miter;stroke-miterlimit:10" transform="matrix(.5268 0 0 .68637 49.72 62.846)"/><path d="M1224.65 252.275h64.39" style="fill:none;stroke:#000;stroke-width:15px" transform="matrix(.5268 0 0 .68637 49.72 62.846)"/><path d="M430.929 340.084c0-5.689-8.79-10.308-19.618-10.308H254.36c-10.828 0-19.618 4.619-19.618 10.308v185.547c0 5.689 8.79 10.308 19.618 10.308h156.951c10.828 0 19.618-4.619 19.618-10.308V340.084Z" style="fill:#fff" transform="matrix(.26852 0 0 .66585 236.608 -52.218)"/><path d="M355.483 174.225v123.546c0 6.061-3.777 10.982-8.428 10.982H304.91c-4.652 0-8.43-4.921-8.43-10.982V174.225c0-6.06 3.778-10.982 8.43-10.982h42.145c4.651 0 8.428 4.922 8.428 10.982Zm-3.16 0c0-3.788-2.36-6.863-5.268-6.863H304.91c-2.908 0-5.268 3.075-5.268 6.863v123.546c0 3.788 2.36 6.863 5.268 6.863h42.145c2.907 0 5.267-3.075 5.267-6.863V174.225Z"/><path d="M46.105 126.665h78.078" style="fill:none;stroke:#000;stroke-width:6.12px" transform="matrix(.50604 0 0 .68636 282.938 149.725)"/><circle cx="172.662" cy="87.8" r="12.012" transform="matrix(.39472 0 0 .51427 257.829 224.823)"/><circle cx="172.662" cy="87.8" r="12.012" transform="matrix(.39472 0 0 -.51427 257.829 247.174)"/><path d="M430.929 340.084c0-5.689-8.79-10.308-19.618-10.308H254.36c-10.828 0-19.618 4.619-19.618 10.308v185.547c0 5.689 8.79 10.308 19.618 10.308h156.951c10.828 0 19.618-4.619 19.618-10.308V340.084Z" style="fill:#fff" transform="matrix(.26852 0 0 .66585 411.78 -52.218)"/><path d="M530.655 174.225v123.546c0 6.061-3.777 10.982-8.429 10.982h-42.144c-4.652 0-8.43-4.921-8.43-10.982V174.225c0-6.06 3.778-10.982 8.43-10.982h42.144c4.652 0 8.43 4.922 8.43 10.982Zm-3.16 0c0-3.788-2.361-6.863-5.269-6.863h-42.144c-2.908 0-5.268 3.075-5.268 6.863v123.546c0 3.788 2.36 6.863 5.268 6.863h42.144c2.908 0 5.268-3.075 5.268-6.863V174.225Z"/><path d="M46.105 126.665h78.078" style="fill:none;stroke:#000;stroke-width:6.12px" transform="matrix(.50604 0 0 .68636 458.11 149.725)"/><circle cx="172.662" cy="87.8" r="12.012" style="fill:#898992" transform="matrix(.39472 0 0 .51427 448.81 205.344)"/><circle cx="172.662" cy="87.8" r="12.012" style="fill:#898992" transform="matrix(.39472 0 0 .51427 448.81 243.827)"/><circle cx="172.662" cy="87.8" r="12.012" style="fill:#898992" transform="matrix(.39472 0 0 .51427 417.05 205.344)"/><circle cx="172.662" cy="87.8" r="12.012" style="fill:#898992" transform="matrix(.39472 0 0 .51427 417.05 243.827)"/><circle cx="172.662" cy="87.8" r="12.012" style="fill:#898992" transform="matrix(.39472 0 0 -.51427 448.81 266.652)"/><circle cx="172.662" cy="87.8" r="12.012" style="fill:#898992" transform="matrix(.39472 0 0 -.51427 448.81 228.17)"/><circle cx="172.662" cy="87.8" r="12.012" style="fill:#898992" transform="matrix(.39472 0 0 -.51427 417.05 266.652)"/><circle cx="172.662" cy="87.8" r="12.012" style="fill:#898992" transform="matrix(.39472 0 0 -.51427 417.05 228.17)"/><path d="M430.929 340.084c0-5.689-8.79-10.308-19.618-10.308H254.36c-10.828 0-19.618 4.619-19.618 10.308v185.547c0 5.689 8.79 10.308 19.618 10.308h156.951c10.828 0 19.618-4.619 19.618-10.308V340.084Z" style="fill:#fff" transform="matrix(0 .34985 -.51106 0 809.986 119.556)"/><path d="M636.182 274.435h-94.825c-4.652 0-8.43-4.921-8.43-10.982v-54.91c0-6.06 3.778-10.981 8.43-10.981h94.825c4.652 0 8.43 4.92 8.43 10.982v54.91c0 6.06-3.778 10.98-8.43 10.98Zm0-4.119c2.908 0 5.268-3.075 5.268-6.863v-54.91c0-3.788-2.36-6.863-5.268-6.863h-94.825c-2.908 0-5.268 3.075-5.268 6.864v54.91c0 3.787 2.36 6.862 5.268 6.862h94.825Z"/><path d="M46.105 126.665h78.078" style="fill:none;stroke:#000;stroke-width:6.12px" transform="matrix(0 .65931 -.5268 0 654.987 179.918)"/><circle cx="172.662" cy="87.8" r="12.012" style="fill:#898992" transform="matrix(0 .51427 -.39472 0 612.297 167.802)"/><circle cx="172.662" cy="87.8" r="12.012" style="fill:#898992" transform="matrix(0 .51427 -.39472 0 582.76 167.802)"/><circle cx="172.662" cy="87.8" r="12.012" style="fill:#898992" transform="matrix(0 .51427 -.39472 0 612.297 126.42)"/><circle cx="172.662" cy="87.8" r="12.012" style="fill:#898992" transform="matrix(0 .51427 -.39472 0 582.76 126.42)"/><circle cx="172.662" cy="87.8" r="12.012" style="fill:#f7e400" transform="matrix(0 .51427 .39472 0 565.053 166.77)"/><circle cx="172.662" cy="87.8" r="12.012" style="fill:#f7e400" transform="matrix(0 .51427 .39472 0 594.836 126.918)"/><circle cx="172.662" cy="87.8" r="12.012" style="fill:#f7e400" transform="matrix(0 .51427 .39472 0 580.025 146.334)"/><path d="M430.929 340.084c0-5.689-8.79-10.308-19.618-10.308H254.36c-10.828 0-19.618 4.619-19.618 10.308v185.547c0 5.689 8.79 10.308 19.618 10.308h156.951c10.828 0 19.618-4.619 19.618-10.308V340.084Z" style="fill:#fff" transform="matrix(0 -.34985 .51106 0 17.19 352.441)"/><path d="M190.993 197.562h94.825c4.652 0 8.43 4.92 8.43 10.982v54.909c0 6.06-3.778 10.982-8.43 10.982h-94.825c-4.652 0-8.43-4.921-8.43-10.982v-54.91c0-6.06 3.778-10.981 8.43-10.981Zm0 4.118c-2.908 0-5.268 3.075-5.268 6.864v54.909c0 3.788 2.36 6.863 5.268 6.863h94.825c2.908 0 5.268-3.075 5.268-6.863v-54.91c0-3.788-2.36-6.863-5.268-6.863h-94.825Z"/><path d="M46.105 126.665h78.078" style="fill:none;stroke:#000;stroke-width:6.12px" transform="matrix(0 -.65931 .5268 0 172.188 292.079)"/><circle cx="172.662" cy="87.8" r="12.012" transform="matrix(0 -.51427 .39472 0 229.828 324.794)"/><circle cx="172.662" cy="87.8" r="12.012" style="fill:#95352e" transform="matrix(0 -.51427 -.39472 0 262.232 303.919)"/><circle cx="172.662" cy="87.8" r="12.012" style="fill:#95352e" transform="matrix(0 -.51427 -.39472 0 232.101 344.61)"/><path d="M524.073 34.202c0-9.167-8.739-16.61-19.503-16.61H296.664c-10.764 0-19.502 7.443-19.502 16.61v77.516c0 9.167 8.738 16.61 19.502 16.61H504.57c10.764 0 19.503-7.443 19.503-16.61V34.202Z" style="fill:#badfff" transform="matrix(.51157 0 0 .78255 -86.67 55.117)"/><text x="491.783" y="102.235" style="font-family:'Source Sans Pro',sans-serif;font-weight:700;font-size:48px" transform="matrix(.5268 0 0 .68636 -189.676 37.083)">t<tspan x="509.303px 534.695px 552.119px" y="102.235px 102.235px 102.235px">ota</tspan>l: 5</text><text x="491.783" y="150.235" style="font-family:'Source Sans Pro',sans-serif;font-weight:700;font-size:48px" transform="matrix(.5268 0 0 .68636 -189.676 37.083)">sc<tspan x="534.119px 560.759px 579.383px" y="150.235px 150.235px 150.235px">ore</tspan>: 5</text><path d="m193.993 283.385 6.687 20.582h21.641l-17.508 12.72 6.687 20.581-17.507-12.72-17.508 12.72 6.687-20.581-17.507-12.72h21.64l6.688-20.582Z" style="fill:#144073" transform="matrix(.5268 0 0 .68636 60.577 19.022)"/><path d="m193.993 283.385 6.687 20.582h21.641l-17.508 12.72 6.687 20.581-17.507-12.72-17.508 12.72 6.687-20.581-17.507-12.72h21.64l6.688-20.582Z" style="fill:#144073" transform="matrix(.5268 0 0 .68636 564.077 19.022)"/><text x="1140.08" y="455.698" style="font-family:'Share Tech Mono',monospace;font-size:48px;fill:#144073" transform="matrix(.5268 0 0 .68636 -445.015 -113.531)">2</text><text x="1140.08" y="455.698" style="font-family:'Share Tech Mono',monospace;font-size:48px;fill:#144073" transform="matrix(.5268 0 0 .68636 58.485 -113.531)">3</text></g></g></svg>
