<svg viewBox="0 0 870 442" xmlns="http://www.w3.org/2000/svg" xml:space="preserve" style="fill-rule:evenodd;clip-rule:evenodd;stroke-linecap:round;stroke-linejoin:round;stroke-miterlimit:1.5"><g transform="matrix(1.19382 0 0 1.25083 -59.356 -78.61)"><path style="fill:none" d="M49.719 62.846h728.322v353.353H49.719z"/><clipPath id="a"><path d="M49.719 62.846h728.322v353.353H49.719z"/></clipPath><g clip-path="url(#a)"><path d="M524.073 34.202c0-9.167-8.739-16.61-19.503-16.61H296.664c-10.764 0-19.502 7.443-19.502 16.61v77.516c0 9.167 8.738 16.61 19.502 16.61H504.57c10.764 0 19.503-7.443 19.503-16.61V34.202Z" style="fill:#badfff" transform="matrix(.81342 0 0 .9115 -167.145 53.844)"/><text x="491.783" y="102.235" style="font-family:&quot;SourceSansPro-Bold&quot;,&quot;Source Sans Pro&quot;,sans-serif;font-weight:700;font-size:48px" transform="matrix(.83764 0 0 .79947 -330.929 32.838)">t<tspan x="509.303px 534.695px 552.119px" y="102.235px 102.235px 102.235px">ota</tspan>l: 10</text><text x="491.783" y="150.235" style="font-family:&quot;SourceSansPro-Bold&quot;,&quot;Source Sans Pro&quot;,sans-serif;font-weight:700;font-size:48px" transform="matrix(.83764 0 0 .79947 -330.929 32.838)">sc<tspan x="534.119px 560.759px 579.383px" y="150.235px 150.235px 150.235px">ore</tspan>: 10</text><path d="m193.993 283.385 6.687 20.582h21.641l-17.508 12.72 6.687 20.581-17.507-12.72-17.508 12.72 6.687-20.581-17.507-12.72h21.64l6.688-20.582Z" style="fill:#144073" transform="matrix(.83764 0 0 .79947 152.07 -122.235)"/><path d="m193.993 283.385 6.687 20.582h21.641l-17.508 12.72 6.687 20.581-17.507-12.72-17.508 12.72 6.687-20.581-17.507-12.72h21.64l6.688-20.582Z" style="fill:#144073" transform="matrix(.83764 0 0 .79947 432.492 -122.235)"/><path d="m193.993 283.385 6.687 20.582h21.641l-17.508 12.72 6.687 20.581-17.507-12.72-17.508 12.72 6.687-20.581-17.507-12.72h21.64l6.688-20.582Z" style="fill:#144073" transform="matrix(.83764 0 0 .79947 152.07 118.81)"/><path d="m193.993 283.385 6.687 20.582h21.641l-17.508 12.72 6.687 20.581-17.507-12.72-17.508 12.72 6.687-20.581-17.507-12.72h21.64l6.688-20.582Z" style="fill:#144073" transform="matrix(.83764 0 0 .79947 432.492 118.81)"/><path d="M430.929 340.084c0-5.689-8.79-10.308-19.618-10.308H254.36c-10.828 0-19.618 4.619-19.618 10.308v185.547c0 5.689 8.79 10.308 19.618 10.308h156.951c10.828 0 19.618-4.619 19.618-10.308V340.084Z" style="fill:#fff" transform="matrix(0 .4075 .8126 0 102.792 107.708)"/><path d="M379.145 288.109c-7.396 0-13.402-5.732-13.402-12.792V211.36c0-7.06 6.006-12.792 13.402-12.792h150.776c7.397 0 13.403 5.732 13.403 12.792v63.957c0 7.06-6.006 12.792-13.403 12.792H379.145Zm0-4.797h150.776c4.623 0 8.377-3.582 8.377-7.995V211.36c0-4.413-3.754-7.995-8.377-7.995H379.145c-4.623 0-8.376 3.582-8.376 7.995v63.957c0 4.413 3.753 7.995 8.376 7.995Z"/><path d="M46.105 126.665h78.078" style="fill:none;stroke:#000;stroke-width:6.12px" transform="matrix(0 .76796 .83764 0 349.245 178.017)"/><circle cx="172.662" cy="87.8" r="12.012" style="fill:#898992" transform="matrix(0 .59902 .62762 0 417.123 163.904)"/><circle cx="172.662" cy="87.8" r="12.012" style="fill:#898992" transform="matrix(0 .59902 .62762 0 464.088 163.904)"/><circle cx="172.662" cy="87.8" r="12.012" style="fill:#898992" transform="matrix(0 .59902 .62762 0 417.123 115.704)"/><circle cx="172.662" cy="87.8" r="12.012" style="fill:#898992" transform="matrix(0 .59902 .62762 0 464.088 115.704)"/><circle cx="172.662" cy="87.8" r="12.012" transform="matrix(0 .59902 -.62762 0 468.172 139.911)"/><path d="m184.136 248.267-22.5-22.5 22.5-22.5" style="fill:none;stroke:#000;stroke-width:15px;stroke-linejoin:miter;stroke-miterlimit:10" transform="matrix(.83764 0 0 .79947 49.72 62.846)"/><path d="M226.03 225.767h-64.394" style="fill:none;stroke:#000;stroke-width:15px" transform="matrix(.83764 0 0 .79947 49.72 62.846)"/><path d="m790.031 203.267 22.5 22.5-22.5 22.5" style="fill:none;stroke:#000;stroke-width:15px;stroke-linejoin:miter;stroke-miterlimit:10" transform="matrix(.83764 0 0 .79947 49.722 62.846)"/><path d="M748.137 225.767h64.394" style="fill:none;stroke:#000;stroke-width:15px" transform="matrix(.83764 0 0 .79947 49.722 62.846)"/><path d="M430.929 340.084c0-5.689-8.79-10.308-19.618-10.308H254.36c-10.828 0-19.618 4.619-19.618 10.308v185.547c0 5.689 8.79 10.308 19.618 10.308h156.951c10.828 0 19.618-4.619 19.618-10.308V340.084Z" style="fill:#fff" transform="matrix(.42696 0 0 .77557 172.772 -92.372)"/><path d="M361.788 171.386v143.905c0 7.06-6.006 12.791-13.403 12.791h-67.011c-7.397 0-13.403-5.731-13.403-12.791V171.386c0-7.059 6.006-12.791 13.403-12.791h67.011c7.397 0 13.403 5.732 13.403 12.791Zm-5.026 0c0-4.412-3.753-7.994-8.377-7.994h-67.011c-4.624 0-8.377 3.582-8.377 7.994v143.905c0 4.412 3.753 7.994 8.377 7.994h67.011c4.624 0 8.377-3.582 8.377-7.994V171.386Z"/><path d="M46.105 126.665h78.078" style="fill:none;stroke:#000;stroke-width:6.12px" transform="matrix(.80463 0 0 .79947 246.438 142.849)"/><circle cx="172.662" cy="87.8" r="12.012" transform="matrix(.62762 0 0 .59902 206.513 230.322)"/><circle cx="172.662" cy="87.8" r="12.012" transform="matrix(.62762 0 0 -.59902 206.513 256.356)"/><path d="M430.929 340.084c0-5.689-8.79-10.308-19.618-10.308H254.36c-10.828 0-19.618 4.619-19.618 10.308v185.547c0 5.689 8.79 10.308 19.618 10.308h156.951c10.828 0 19.618-4.619 19.618-10.308V340.084Z" style="fill:#fff" transform="matrix(.42696 0 0 .77557 452.14 -92.372)"/><path d="M641.155 171.386v143.905c0 7.06-6.006 12.791-13.402 12.791H560.74c-7.397 0-13.402-5.731-13.402-12.791V171.386c0-7.059 6.005-12.791 13.402-12.791h67.012c7.396 0 13.402 5.732 13.402 12.791Zm-5.026 0c0-4.412-3.753-7.994-8.376-7.994H560.74c-4.623 0-8.376 3.582-8.376 7.994v143.905c0 4.412 3.753 7.994 8.376 7.994h67.012c4.623 0 8.376-3.582 8.376-7.994V171.386Z"/><path d="M46.105 126.665h78.078" style="fill:none;stroke:#000;stroke-width:6.12px" transform="matrix(.80463 0 0 .79947 525.806 142.849)"/><circle cx="172.662" cy="87.8" r="12.012" style="fill:#898992" transform="matrix(.62762 0 0 .59902 511.019 207.633)"/><circle cx="172.662" cy="87.8" r="12.012" style="fill:#898992" transform="matrix(.62762 0 0 .59902 511.019 252.458)"/><circle cx="172.662" cy="87.8" r="12.012" style="fill:#898992" transform="matrix(.62762 0 0 .59902 460.517 207.633)"/><circle cx="172.662" cy="87.8" r="12.012" style="fill:#898992" transform="matrix(.62762 0 0 .59902 460.517 252.458)"/><circle cx="172.662" cy="87.8" r="12.012" style="fill:#898992" transform="matrix(.62762 0 0 -.59902 511.019 279.044)"/><circle cx="172.662" cy="87.8" r="12.012" style="fill:#898992" transform="matrix(.62762 0 0 -.59902 511.019 234.22)"/><circle cx="172.662" cy="87.8" r="12.012" style="fill:#898992" transform="matrix(.62762 0 0 -.59902 460.517 279.044)"/><circle cx="172.662" cy="87.8" r="12.012" style="fill:#898992" transform="matrix(.62762 0 0 -.59902 460.517 234.22)"/><text x="1140.08" y="455.698" style="font-family:&quot;ShareTechMono-Regular&quot;,&quot;Share Tech Mono&quot;,monospace;font-size:48px;fill:#144073" transform="matrix(.83764 0 0 .79947 -608.231 -223.551)">1</text><text x="1140.08" y="455.698" style="font-family:&quot;ShareTechMono-Regular&quot;,&quot;Share Tech Mono&quot;,monospace;font-size:48px;fill:#144073" transform="matrix(.83764 0 0 .79947 -608.231 19.393)">1</text><text x="1140.08" y="455.698" style="font-family:&quot;ShareTechMono-Regular&quot;,&quot;Share Tech Mono&quot;,monospace;font-size:48px;fill:#144073" transform="matrix(.83764 0 0 .79947 -327.516 -222.313)">4</text><text x="1140.08" y="455.698" style="font-family:&quot;ShareTechMono-Regular&quot;,&quot;Share Tech Mono&quot;,monospace;font-size:48px;fill:#144073" transform="matrix(.83764 0 0 .79947 -327.516 16.977)">4</text></g></g></svg>