<svg viewBox="0 0 840 421" xmlns="http://www.w3.org/2000/svg" xml:space="preserve" style="fill-rule:evenodd;clip-rule:evenodd;stroke-linecap:round;stroke-linejoin:round;stroke-miterlimit:1.5"><g transform="matrix(1.15312 0 0 1.19088 -57.332 -74.841)"><path style="fill:none" d="M49.719 62.846h728.322v353.353H49.719z"/><clipPath id="a"><path d="M49.719 62.846h728.322v353.353H49.719z"/></clipPath><g clip-path="url(#a)"><path d="m193.993 283.385 6.687 20.582h21.641l-17.508 12.72 6.687 20.581-17.507-12.72-17.508 12.72 6.687-20.581-17.507-12.72h21.64l6.688-20.582Z" style="fill:#144073" transform="matrix(.86721 0 0 .83972 173.81 -145.829)"/><path d="m193.993 283.385 6.687 20.582h21.641l-17.508 12.72 6.687 20.581-17.507-12.72-17.508 12.72 6.687-20.581-17.507-12.72h21.64l6.688-20.582Z" style="fill:#144073" transform="matrix(.86721 0 0 .83972 173.81 115.636)"/><path d="M430.929 340.084c0-5.689-8.79-10.308-19.618-10.308H254.36c-10.828 0-19.618 4.619-19.618 10.308v185.547c0 5.689 8.79 10.308 19.618 10.308h156.951c10.828 0 19.618-4.619 19.618-10.308V340.084Z" style="fill:#fff" transform="matrix(0 .42802 .84129 0 122.792 95.691)"/><path d="M408.9 285.175c-7.657 0-13.875-6.02-13.875-13.436v-67.177c0-7.415 6.218-13.436 13.876-13.436h156.098c7.658 0 13.875 6.02 13.875 13.436v67.177c0 7.415-6.217 13.436-13.875 13.436H408.901Zm0-5.039H565c4.786 0 8.672-3.762 8.672-8.397v-67.177c0-4.635-3.886-8.397-8.672-8.397H408.901c-4.786 0-8.672 3.762-8.672 8.397v67.177c0 4.635 3.886 8.397 8.672 8.397Z"/><path d="M46.105 126.665h78.078" style="fill:none;stroke:#000;stroke-width:6.12px" transform="matrix(0 .80662 .86721 0 377.945 169.54)"/><circle cx="172.662" cy="87.8" r="12.012" style="fill:#898992" transform="matrix(0 .62918 .64978 0 448.219 154.716)"/><circle cx="172.662" cy="87.8" r="12.012" style="fill:#898992" transform="matrix(0 .62918 .64978 0 496.841 154.716)"/><circle cx="172.662" cy="87.8" r="12.012" style="fill:#898992" transform="matrix(0 .62918 .64978 0 448.219 104.09)"/><circle cx="172.662" cy="87.8" r="12.012" style="fill:#898992" transform="matrix(0 .62918 .64978 0 496.841 104.09)"/><circle cx="172.662" cy="87.8" r="12.012" transform="matrix(0 .62918 -.64978 0 501.07 129.516)"/><path d="m201.039 231.266-22.5-22.5 22.5-22.5" style="fill:none;stroke:#000;stroke-width:15px;stroke-linejoin:miter;stroke-miterlimit:10" transform="matrix(.86721 0 0 .83972 49.72 62.846)"/><path d="M242.932 208.766h-64.393" style="fill:none;stroke:#000;stroke-width:15px" transform="matrix(.86721 0 0 .83972 49.72 62.846)"/><path d="m750.906 186.266 22.5 22.5-22.5 22.5" style="fill:none;stroke:#000;stroke-width:15px;stroke-linejoin:miter;stroke-miterlimit:10" transform="matrix(.86721 0 0 .83972 49.72 62.846)"/><path d="M709.013 208.766h64.393" style="fill:none;stroke:#000;stroke-width:15px" transform="matrix(.86721 0 0 .83972 49.72 62.846)"/><path d="M430.929 340.084c0-5.689-8.79-10.308-19.618-10.308H254.36c-10.828 0-19.618 4.619-19.618 10.308v185.547c0 5.689 8.79 10.308 19.618 10.308h156.951c10.828 0 19.618-4.619 19.618-10.308V340.084Z" style="fill:#fff" transform="matrix(.44203 0 0 .81461 195.242 -114.462)"/><path d="M390.93 162.575v151.15c0 7.415-6.218 13.435-13.875 13.435h-69.378c-7.657 0-13.875-6.02-13.875-13.436V162.575c0-7.414 6.218-13.435 13.875-13.435h69.378c7.657 0 13.875 6.02 13.875 13.435Zm-5.204 0c0-4.634-3.885-8.397-8.671-8.397h-69.378c-4.786 0-8.671 3.763-8.671 8.397v151.15c0 4.634 3.885 8.396 8.671 8.396h69.378c4.786 0 8.671-3.762 8.671-8.397V162.575Z"/><path d="M46.105 126.665h78.078" style="fill:none;stroke:#000;stroke-width:6.12px" transform="matrix(.83303 0 0 .83972 271.509 132.601)"/><circle cx="172.662" cy="87.8" r="12.012" transform="matrix(.64978 0 0 .62918 230.174 224.478)"/><circle cx="172.662" cy="87.8" r="12.012" transform="matrix(.64978 0 0 -.62918 230.174 251.822)"/><text x="1140.08" y="455.698" style="font-family:'Share Tech Mono',monospace;font-size:48px;fill:#144073" transform="matrix(.86721 0 0 .83972 -613.329 -252.246)">1</text><text x="1140.08" y="455.698" style="font-family:'Share Tech Mono',monospace;font-size:48px;fill:#144073" transform="matrix(.86721 0 0 .83972 -381.171 -183.627)">4</text><text x="1140.08" y="455.698" style="font-family:'Share Tech Mono',monospace;font-size:48px;fill:#144073" transform="matrix(.86721 0 0 .83972 -613.329 11.214)">1</text><path d="M524.073 34.202c0-9.167-8.739-16.61-19.503-16.61H296.664c-10.764 0-19.502 7.443-19.502 16.61v77.516c0 9.167 8.738 16.61 19.502 16.61H504.57c10.764 0 19.503-7.443 19.503-16.61V34.202Z" style="fill:#badfff" transform="matrix(.84213 0 0 .95739 -174.8 53.39)"/><text x="491.783" y="102.235" style="font-family:'Source Sans Pro',sans-serif;font-weight:700;font-size:48px" transform="matrix(.86721 0 0 .83972 -344.365 31.327)">t<tspan x="509.303px 534.695px 552.119px" y="102.235px 102.235px 102.235px">ota</tspan>l: 6</text><text x="491.783" y="150.235" style="font-family:'Source Sans Pro',sans-serif;font-weight:700;font-size:48px" transform="matrix(.86721 0 0 .83972 -344.365 31.327)">sc<tspan x="534.119px 560.759px 579.383px" y="150.235px 150.235px 150.235px">ore</tspan>: 0</text><text x="491.783" y="102.235" style="font-family:'Source Sans Pro',sans-serif;font-weight:700;font-size:24px;fill:#144073" transform="matrix(.86721 0 0 .83972 -125.41 259.657)">SPINNER</text><path d="m193.993 283.385 6.687 20.582h21.641l-17.508 12.72 6.687 20.581-17.507-12.72-17.508 12.72 6.687-20.581-17.507-12.72h21.64l6.688-20.582Z" style="fill:#144073" transform="matrix(.86721 0 0 .83972 451.193 -26.805)"/></g></g></svg>
