<svg viewBox="0 0 1148 436" xmlns="http://www.w3.org/2000/svg" xml:space="preserve" style="fill-rule:evenodd;clip-rule:evenodd;stroke-linecap:round;stroke-linejoin:round;stroke-miterlimit:1.5"><g transform="matrix(1.57491 0 0 1.23316 -78.303 -77.499)"><path style="fill:none" d="M49.719 62.846h728.322v353.353H49.719z"/><clipPath id="a"><path d="M49.719 62.846h728.322v353.353H49.719z"/></clipPath><g clip-path="url(#a)"><path d="M430.929 340.084c0-5.689-8.79-10.308-19.618-10.308H254.36c-10.828 0-19.618 4.619-19.618 10.308v185.547c0 5.689 8.79 10.308 19.618 10.308h156.951c10.828 0 19.618-4.619 19.618-10.308V340.084Z" style="fill:#fff" transform="matrix(0 .41334 .61598 0 88.564 108.351)"/><path d="M298.048 291.338c-5.607 0-10.16-5.814-10.16-12.975v-64.874c0-7.161 4.553-12.975 10.16-12.975H412.34c5.607 0 10.16 5.814 10.16 12.975v64.874c0 7.16-4.553 12.975-10.16 12.975H298.048Zm0-4.866H412.34c3.504 0 6.35-3.634 6.35-8.11V213.49c0-4.476-2.846-8.11-6.35-8.11H298.048c-3.505 0-6.35 3.634-6.35 8.11v64.874c0 4.475 2.845 8.109 6.35 8.109Z"/><path d="M46.105 126.665h78.078" style="fill:none;stroke:#000;stroke-width:6.12px" transform="matrix(0 .77896 .63496 0 275.383 179.668)"/><circle cx="172.662" cy="87.8" r="12.012" style="fill:#898992" transform="matrix(0 .6076 .47575 0 326.836 165.353)"/><circle cx="172.662" cy="87.8" r="12.012" style="fill:#898992" transform="matrix(0 .6076 .47575 0 362.436 165.353)"/><circle cx="172.662" cy="87.8" r="12.012" style="fill:#898992" transform="matrix(0 .6076 .47575 0 326.836 116.462)"/><circle cx="172.662" cy="87.8" r="12.012" style="fill:#898992" transform="matrix(0 .6076 .47575 0 362.436 116.462)"/><circle cx="172.662" cy="87.8" r="12.012" transform="matrix(0 .6076 -.47575 0 365.533 141.016)"/><path d="m181.954 248.267-22.5-22.5 22.5-22.5" style="fill:none;stroke:#000;stroke-width:15px;stroke-linejoin:miter;stroke-miterlimit:10" transform="matrix(.63496 0 0 .81092 49.72 62.846)"/><path d="M223.847 225.767h-64.393" style="fill:none;stroke:#000;stroke-width:15px" transform="matrix(.63496 0 0 .81092 49.72 62.846)"/><path d="m1056.51 203.267 22.5 22.5-22.5 22.5" style="fill:none;stroke:#000;stroke-width:15px;stroke-linejoin:miter;stroke-miterlimit:10" transform="matrix(.63496 0 0 .81092 49.72 62.846)"/><path d="M1014.61 225.767h64.4" style="fill:none;stroke:#000;stroke-width:15px" transform="matrix(.63496 0 0 .81092 49.72 62.846)"/><path d="M430.929 340.084c0-5.689-8.79-10.308-19.618-10.308H254.36c-10.828 0-19.618 4.619-19.618 10.308v185.547c0 5.689 8.79 10.308 19.618 10.308h156.951c10.828 0 19.618-4.619 19.618-10.308V340.084Z" style="fill:#fff" transform="matrix(0 .41334 -.61598 0 831.472 107.742)"/><path d="M621.988 290.729H507.696c-5.607 0-10.16-5.814-10.16-12.975V212.88c0-7.161 4.553-12.975 10.16-12.975h114.292c5.607 0 10.16 5.814 10.16 12.975v64.874c0 7.16-4.553 12.975-10.16 12.975Zm0-4.866c3.505 0 6.35-3.634 6.35-8.11V212.88c0-4.476-2.845-8.11-6.35-8.11H507.696c-3.504 0-6.35 3.634-6.35 8.11v64.874c0 4.475 2.846 8.109 6.35 8.109h114.292Z"/><path d="M46.105 126.665h78.078" style="fill:none;stroke:#000;stroke-width:6.12px" transform="matrix(0 .77896 -.63496 0 644.654 179.059)"/><circle cx="172.662" cy="87.8" r="12.012" style="fill:#898992" transform="matrix(0 .6076 -.47575 0 593.2 164.744)"/><circle cx="172.662" cy="87.8" r="12.012" style="fill:#898992" transform="matrix(0 .6076 -.47575 0 557.6 164.744)"/><circle cx="172.662" cy="87.8" r="12.012" style="fill:#898992" transform="matrix(0 .6076 -.47575 0 593.2 115.853)"/><circle cx="172.662" cy="87.8" r="12.012" style="fill:#898992" transform="matrix(0 .6076 -.47575 0 557.6 115.853)"/><circle cx="172.662" cy="87.8" r="12.012" style="fill:#f7e400" transform="matrix(0 .6076 .47575 0 536.258 163.524)"/><circle cx="172.662" cy="87.8" r="12.012" style="fill:#f7e400" transform="matrix(0 .6076 .47575 0 572.154 116.441)"/><circle cx="172.662" cy="87.8" r="12.012" style="fill:#f7e400" transform="matrix(0 .6076 .47575 0 554.302 139.38)"/><path d="M430.929 340.084c0-5.689-8.79-10.308-19.618-10.308H254.36c-10.828 0-19.618 4.619-19.618 10.308v185.547c0 5.689 8.79 10.308 19.618 10.308h156.951c10.828 0 19.618-4.619 19.618-10.308V340.084Z" style="fill:#fff" transform="matrix(.32365 0 0 .78668 141.61 -94.595)"/><path d="M284.89 172.942V318.91c0 7.16-4.553 12.974-10.16 12.974h-50.796c-5.607 0-10.16-5.813-10.16-12.974V172.942c0-7.16 4.553-12.974 10.16-12.974h50.797c5.606 0 10.159 5.814 10.159 12.974Zm-3.81 0c0-4.475-2.845-8.109-6.35-8.109h-50.796c-3.505 0-6.35 3.634-6.35 8.11v145.966c0 4.475 2.845 8.109 6.35 8.109h50.797c3.504 0 6.349-3.634 6.349-8.11V172.943Z"/><path d="M46.105 126.665h78.078" style="fill:none;stroke:#000;stroke-width:6.12px" transform="matrix(.60993 0 0 .81092 197.452 143.996)"/><circle cx="172.662" cy="87.8" r="12.012" transform="matrix(.47575 0 0 .6076 167.187 232.722)"/><circle cx="172.662" cy="87.8" r="12.012" transform="matrix(.47575 0 0 -.6076 167.187 259.13)"/><path d="M430.929 340.084c0-5.689-8.79-10.308-19.618-10.308H254.36c-10.828 0-19.618 4.619-19.618 10.308v185.547c0 5.689 8.79 10.308 19.618 10.308h156.951c10.828 0 19.618-4.619 19.618-10.308V340.084Z" style="fill:#fff" transform="matrix(.32365 0 0 .78668 352.108 -94.595)"/><path d="M495.387 172.942V318.91c0 7.16-4.552 12.974-10.159 12.974h-50.797c-5.607 0-10.159-5.813-10.159-12.974V172.942c0-7.16 4.552-12.974 10.16-12.974h50.796c5.607 0 10.16 5.814 10.16 12.974Zm-3.81 0c0-4.475-2.844-8.109-6.349-8.109h-50.797c-3.504 0-6.35 3.634-6.35 8.11v145.966c0 4.475 2.846 8.109 6.35 8.109h50.797c3.505 0 6.35-3.634 6.35-8.11V172.943Z"/><path d="M46.105 126.665h78.078" style="fill:none;stroke:#000;stroke-width:6.12px" transform="matrix(.60993 0 0 .81092 407.95 143.996)"/><circle cx="172.662" cy="87.8" r="12.012" style="fill:#898992" transform="matrix(.47575 0 0 .6076 396.74 209.709)"/><circle cx="172.662" cy="87.8" r="12.012" style="fill:#898992" transform="matrix(.47575 0 0 .6076 396.74 255.175)"/><circle cx="172.662" cy="87.8" r="12.012" style="fill:#898992" transform="matrix(.47575 0 0 .6076 358.46 209.709)"/><circle cx="172.662" cy="87.8" r="12.012" style="fill:#898992" transform="matrix(.47575 0 0 .6076 358.46 255.175)"/><circle cx="172.662" cy="87.8" r="12.012" style="fill:#898992" transform="matrix(.47575 0 0 -.6076 396.74 282.142)"/><circle cx="172.662" cy="87.8" r="12.012" style="fill:#898992" transform="matrix(.47575 0 0 -.6076 396.74 236.676)"/><circle cx="172.662" cy="87.8" r="12.012" style="fill:#898992" transform="matrix(.47575 0 0 -.6076 358.46 282.142)"/><circle cx="172.662" cy="87.8" r="12.012" style="fill:#898992" transform="matrix(.47575 0 0 -.6076 358.46 236.676)"/><path d="M524.073 34.202c0-9.167-8.739-16.61-19.503-16.61H296.664c-10.764 0-19.502 7.443-19.502 16.61v77.516c0 9.167 8.738 16.61 19.502 16.61H504.57c10.764 0 19.503-7.443 19.503-16.61V34.202Z" style="fill:#badfff" transform="matrix(.6166 0 0 .92456 -114.669 53.715)"/><text x="491.783" y="102.235" style="font-family:&quot;SourceSansPro-Bold&quot;,&quot;Source Sans Pro&quot;,sans-serif;font-weight:700;font-size:48px" transform="matrix(.63496 0 0 .81092 -238.822 32.408)">t<tspan x="509.303px 534.695px 552.119px" y="102.235px 102.235px 102.235px">ota</tspan>l: 5</text><text x="491.783" y="150.235" style="font-family:&quot;SourceSansPro-Bold&quot;,&quot;Source Sans Pro&quot;,sans-serif;font-weight:700;font-size:48px" transform="matrix(.63496 0 0 .81092 -238.822 32.408)">sc<tspan x="534.119px 560.759px 579.383px" y="150.235px 150.235px 150.235px">ore</tspan>: 5</text><path d="m193.993 283.385 6.687 20.582h21.641l-17.508 12.72 6.687 20.581-17.507-12.72-17.508 12.72 6.687-20.581-17.507-12.72h21.64l6.688-20.582Z" style="fill:#144073" transform="matrix(.63496 0 0 .81092 126.155 -128.248)"/><path d="m193.993 283.385 6.687 20.582h21.641l-17.508 12.72 6.687 20.581-17.507-12.72-17.508 12.72 6.687-20.581-17.507-12.72h21.64l6.688-20.582Z" style="fill:#144073" transform="matrix(.63496 0 0 .81092 126.155 119.398)"/><path d="m193.993 283.385 6.687 20.582h21.641l-17.508 12.72 6.687 20.581-17.507-12.72-17.508 12.72 6.687-20.581-17.507-12.72h21.64l6.688-20.582Z" style="fill:#144073" transform="matrix(.63496 0 0 .81092 537.974 -11.35)"/><text x="1140.08" y="455.698" style="font-family:&quot;ShareTechMono-Regular&quot;,&quot;Share Tech Mono&quot;,monospace;font-size:48px;fill:#144073" transform="matrix(.63496 0 0 .81092 -449.024 -227.655)">1</text><text x="1140.08" y="455.698" style="font-family:&quot;ShareTechMono-Regular&quot;,&quot;Share Tech Mono&quot;,monospace;font-size:48px;fill:#144073" transform="matrix(.63496 0 0 .81092 -449.024 18.77)">1</text><text x="1140.08" y="455.698" style="font-family:&quot;ShareTechMono-Regular&quot;,&quot;Share Tech Mono&quot;,monospace;font-size:48px;fill:#144073" transform="matrix(.63496 0 0 .81092 -72.043 -165.74)">3</text></g></g></svg>