<svg viewBox="0 0 667 361" xmlns="http://www.w3.org/2000/svg" xml:space="preserve" style="fill-rule:evenodd;clip-rule:evenodd;stroke-linecap:round;stroke-linejoin:round;stroke-miterlimit:1.5"><g transform="matrix(.91548 0 0 1.02142 -45.517 -64.192)"><path style="fill:none" d="M49.719 62.846h728.322v353.353H49.719z"/><clipPath id="a"><path d="M49.719 62.846h728.322v353.353H49.719z"/></clipPath><g clip-path="url(#a)"><path d="M524.073 34.202c0-9.167-8.739-16.61-19.503-16.61H296.664c-10.764 0-19.502 7.443-19.502 16.61v77.516c0 9.167 8.738 16.61 19.502 16.61H504.57c10.764 0 19.503-7.443 19.503-16.61V34.202Z" style="fill:#badfff" transform="matrix(1.06073 0 0 1.11622 -233.079 51.822)"/><text x="491.783" y="102.235" style="font-family:'Source Sans Pro',sans-serif;font-weight:700;font-size:48px" transform="matrix(1.09232 0 0 .97903 -446.659 26.098)">t<tspan x="509.303px 534.695px 552.119px" y="102.235px 102.235px 102.235px">ota</tspan>l: 5</text><text x="491.783" y="150.235" style="font-family:'Source Sans Pro',sans-serif;font-weight:700;font-size:48px" transform="matrix(1.09232 0 0 .97903 -446.659 26.098)">sc<tspan x="534.119px 560.759px 579.383px" y="150.235px 150.235px 150.235px">ore</tspan>: 5</text><path d="m193.993 283.385 6.687 20.582h21.641l-17.508 12.72 6.687 20.581-17.507-12.72-17.508 12.72 6.687-20.581-17.507-12.72h21.64l6.688-20.582Z" style="fill:#144073" transform="matrix(1.09232 0 0 .97903 39.435 25.225)"/><path d="m193.993 283.385 6.687 20.582h21.641l-17.508 12.72 6.687 20.581-17.507-12.72-17.508 12.72 6.687-20.581-17.507-12.72h21.64l6.688-20.582Z" style="fill:#144073" transform="matrix(1.09232 0 0 .97903 371.176 25.587)"/><path d="M430.929 340.084c0-5.689-8.79-10.308-19.618-10.308H254.36c-10.828 0-19.618 4.619-19.618 10.308v185.547c0 5.689 8.79 10.308 19.618 10.308h156.951c10.828 0 19.618-4.619 19.618-10.308V340.084Z" style="fill:#fff" transform="matrix(0 .49903 1.05967 0 -43.542 163.312)"/><path d="M316.834 384.232c-9.645 0-17.477-7.02-17.477-15.665v-78.322c0-8.645 7.832-15.665 17.477-15.665h196.618c9.646 0 17.477 7.02 17.477 15.665v78.322c0 8.645-7.831 15.665-17.477 15.665H316.834Zm0-5.875h196.618c6.028 0 10.923-4.386 10.923-9.79v-78.322c0-5.404-4.895-9.79-10.923-9.79H316.834c-6.029 0-10.923 4.386-10.923 9.79v78.322c0 5.404 4.894 9.79 10.923 9.79Z"/><path d="M46.105 126.665h78.078" style="fill:none;stroke:#000;stroke-width:6.12px" transform="matrix(0 .94044 1.09232 0 277.843 249.413)"/><circle cx="172.662" cy="87.8" r="12.012" style="fill:#898992" transform="matrix(0 .73356 .81844 0 366.358 232.13)"/><circle cx="172.662" cy="87.8" r="12.012" style="fill:#898992" transform="matrix(0 .73356 .81844 0 427.602 232.13)"/><circle cx="172.662" cy="87.8" r="12.012" style="fill:#898992" transform="matrix(0 .73356 .81844 0 366.358 173.105)"/><circle cx="172.662" cy="87.8" r="12.012" style="fill:#898992" transform="matrix(0 .73356 .81844 0 427.602 173.105)"/><circle cx="172.662" cy="87.8" r="12.012" transform="matrix(0 .73356 -.81844 0 432.928 202.749)"/><path d="m68.649 299.035-22.5-22.5 22.5-22.5" style="fill:none;stroke:#000;stroke-width:15px;stroke-linejoin:miter;stroke-miterlimit:10" transform="matrix(1.09232 0 0 .97903 49.72 62.846)"/><path d="M110.542 276.535H46.149" style="fill:none;stroke:#000;stroke-width:15px" transform="matrix(1.09232 0 0 .97903 49.72 62.846)"/><path d="m601.939 254.035 22.5 22.5-22.5 22.5" style="fill:none;stroke:#000;stroke-width:15px;stroke-linejoin:miter;stroke-miterlimit:10" transform="matrix(1.09232 0 0 .97903 49.719 62.846)"/><path d="M560.046 276.535h64.393" style="fill:none;stroke:#000;stroke-width:15px" transform="matrix(1.09232 0 0 .97903 49.719 62.846)"/><text x="1140.08" y="455.698" style="font-family:'Share Tech Mono',monospace;font-size:48px;fill:#144073" transform="matrix(1.09232 0 0 .97903 -1008.89 -163.848)">1</text><text x="1140.08" y="455.698" style="font-family:'Share Tech Mono',monospace;font-size:48px;fill:#144073" transform="matrix(1.09232 0 0 .97903 -678.022 -163.848)">4</text></g></g></svg>
