<svg viewBox="0 0 1304 1124" xmlns="http://www.w3.org/2000/svg" xml:space="preserve" style="fill-rule:evenodd;clip-rule:evenodd;stroke-linecap:round;stroke-linejoin:round;stroke-miterlimit:1.5"><g transform="matrix(1.78975 0 0 3.17903 -88.985 -199.788)"><path style="fill:none" d="M49.719 62.846h728.322v353.353H49.719z"/><clipPath id="a"><path d="M49.719 62.846h728.322v353.353H49.719z"/></clipPath><g clip-path="url(#a)"><path d="M430.929 340.084c0-5.689-8.79-10.308-19.618-10.308H254.36c-10.828 0-19.618 4.619-19.618 10.308v185.547c0 5.689 8.79 10.308 19.618 10.308h156.951c10.828 0 19.618-4.619 19.618-10.308V340.084Z" style="fill:#fff" transform="matrix(0 .16034 .54203 0 181.67 278.285)"/><path d="M366.007 349.266c-4.933 0-8.94-2.255-8.94-5.033v-25.165c0-2.777 4.007-5.033 8.94-5.033H466.58c4.934 0 8.94 2.256 8.94 5.033v25.165c0 2.778-4.006 5.033-8.94 5.033H366.007Zm0-1.887H466.58c3.084 0 5.587-1.41 5.587-3.146v-25.165c0-1.736-2.503-3.145-5.587-3.145H366.007c-3.083 0-5.587 1.41-5.587 3.145v25.165c0 1.737 2.504 3.146 5.587 3.146Z"/><path d="M46.105 126.665h78.078" style="fill:none;stroke:#000;stroke-width:6.12px" transform="matrix(0 .30216 .55874 0 346.063 305.95)"/><circle cx="172.662" cy="87.8" r="12.012" style="fill:#898992" transform="matrix(0 .2357 .41864 0 391.34 300.396)"/><circle cx="172.662" cy="87.8" r="12.012" style="fill:#898992" transform="matrix(0 .2357 .41864 0 422.667 300.396)"/><circle cx="172.662" cy="87.8" r="12.012" style="fill:#898992" transform="matrix(0 .2357 .41864 0 391.34 281.431)"/><circle cx="172.662" cy="87.8" r="12.012" style="fill:#898992" transform="matrix(0 .2357 .41864 0 422.667 281.431)"/><circle cx="172.662" cy="87.8" r="12.012" transform="matrix(0 .2357 -.41864 0 425.391 290.956)"/><path d="m70.922 877.042-22.5-22.5 22.5-22.5" style="fill:none;stroke:#000;stroke-width:15px;stroke-linejoin:miter;stroke-miterlimit:10" transform="matrix(.55874 0 0 .31456 49.72 62.846)"/><path d="M112.816 854.542H48.422" style="fill:none;stroke:#000;stroke-width:15px" transform="matrix(.55874 0 0 .31456 49.72 62.846)"/><path d="m467.604 51.868 22.5-22.5 22.5 22.5" style="fill:none;stroke:#000;stroke-width:15px;stroke-linejoin:miter;stroke-miterlimit:10" transform="matrix(.55874 0 0 .31456 49.72 62.846)"/><path d="M490.104 93.762V29.368" style="fill:none;stroke:#000;stroke-width:15px" transform="matrix(.55874 0 0 .31456 49.72 62.846)"/><path d="m512.604 1039.47-22.5 22.5-22.5-22.5" style="fill:none;stroke:#000;stroke-width:15px;stroke-linejoin:miter;stroke-miterlimit:10" transform="matrix(.55874 0 0 .31456 49.72 62.846)"/><path d="M490.104 997.579v64.391" style="fill:none;stroke:#000;stroke-width:15px" transform="matrix(.55874 0 0 .31456 49.72 62.846)"/><path d="m1238.49 832.042 22.5 22.5-22.5 22.5" style="fill:none;stroke:#000;stroke-width:15px;stroke-linejoin:miter;stroke-miterlimit:10" transform="matrix(.55874 0 0 .31456 49.718 62.846)"/><path d="M1196.6 854.542h64.39" style="fill:none;stroke:#000;stroke-width:15px" transform="matrix(.55874 0 0 .31456 49.718 62.846)"/><path d="M430.929 340.084c0-5.689-8.79-10.308-19.618-10.308H254.36c-10.828 0-19.618 4.619-19.618 10.308v185.547c0 5.689 8.79 10.308 19.618 10.308h156.951c10.828 0 19.618-4.619 19.618-10.308V340.084Z" style="fill:#fff" transform="matrix(.2848 0 0 .30516 228.767 199.561)"/><path d="M354.847 303.34v56.621c0 2.778-4.006 5.033-8.94 5.033h-44.699c-4.934 0-8.94-2.255-8.94-5.033v-56.62c0-2.778 4.006-5.034 8.94-5.034h44.7c4.933 0 8.939 2.256 8.939 5.033Zm-3.353 0c0-1.736-2.503-3.145-5.587-3.145h-44.699c-3.084 0-5.587 1.41-5.587 3.145v56.621c0 1.737 2.503 3.146 5.587 3.146h44.7c3.083 0 5.586-1.41 5.586-3.146v-56.62Z"/><path d="M46.105 126.665h78.078" style="fill:none;stroke:#000;stroke-width:6.12px" transform="matrix(.53671 0 0 .31456 277.905 292.112)"/><circle cx="172.662" cy="87.8" r="12.012" transform="matrix(.41864 0 0 .2357 251.274 326.53)"/><circle cx="172.662" cy="87.8" r="12.012" transform="matrix(.41864 0 0 -.2357 251.274 336.773)"/><path d="M430.929 340.084c0-5.689-8.79-10.308-19.618-10.308H254.36c-10.828 0-19.618 4.619-19.618 10.308v185.547c0 5.689 8.79 10.308 19.618 10.308h156.951c10.828 0 19.618-4.619 19.618-10.308V340.084Z" style="fill:#fff" transform="matrix(.2848 0 0 .30516 414.697 199.561)"/><path d="M540.777 303.34v56.621c0 2.778-4.006 5.033-8.94 5.033h-44.7c-4.933 0-8.939-2.255-8.939-5.033v-56.62c0-2.778 4.006-5.034 8.94-5.034h44.699c4.934 0 8.94 2.256 8.94 5.033Zm-3.353 0c0-1.736-2.503-3.145-5.587-3.145h-44.7c-3.083 0-5.586 1.41-5.586 3.145v56.621c0 1.737 2.503 3.146 5.587 3.146h44.699c3.084 0 5.587-1.41 5.587-3.146v-56.62Z"/><path d="M46.105 126.665h78.078" style="fill:none;stroke:#000;stroke-width:6.12px" transform="matrix(.53671 0 0 .31456 463.835 292.112)"/><circle cx="172.662" cy="87.8" r="12.012" style="fill:#898992" transform="matrix(.41864 0 0 .2357 453.972 317.602)"/><circle cx="172.662" cy="87.8" r="12.012" style="fill:#898992" transform="matrix(.41864 0 0 .2357 453.972 335.239)"/><circle cx="172.662" cy="87.8" r="12.012" style="fill:#898992" transform="matrix(.41864 0 0 .2357 420.285 317.602)"/><circle cx="172.662" cy="87.8" r="12.012" style="fill:#898992" transform="matrix(.41864 0 0 .2357 420.285 335.239)"/><circle cx="172.662" cy="87.8" r="12.012" style="fill:#898992" transform="matrix(.41864 0 0 -.2357 453.972 345.7)"/><circle cx="172.662" cy="87.8" r="12.012" style="fill:#898992" transform="matrix(.41864 0 0 -.2357 453.972 328.063)"/><circle cx="172.662" cy="87.8" r="12.012" style="fill:#898992" transform="matrix(.41864 0 0 -.2357 420.285 345.7)"/><circle cx="172.662" cy="87.8" r="12.012" style="fill:#898992" transform="matrix(.41864 0 0 -.2357 420.285 328.063)"/><path d="M430.929 340.084c0-5.689-8.79-10.308-19.618-10.308H254.36c-10.828 0-19.618 4.619-19.618 10.308v185.547c0 5.689 8.79 10.308 19.618 10.308h156.951c10.828 0 19.618-4.619 19.618-10.308V340.084Z" style="fill:#fff" transform="matrix(0 .16034 -.54203 0 837.035 278.285)"/><path d="M652.699 349.266H552.126c-4.934 0-8.94-2.255-8.94-5.033v-25.165c0-2.777 4.006-5.033 8.94-5.033h100.573c4.933 0 8.94 2.256 8.94 5.033v25.165c0 2.778-4.007 5.033-8.94 5.033Zm0-1.887c3.083 0 5.587-1.41 5.587-3.146v-25.165c0-1.736-2.504-3.145-5.587-3.145H552.126c-3.084 0-5.587 1.41-5.587 3.145v25.165c0 1.737 2.503 3.146 5.587 3.146h100.573Z"/><path d="M46.105 126.665h78.078" style="fill:none;stroke:#000;stroke-width:6.12px" transform="matrix(0 .30216 -.55874 0 672.643 305.95)"/><circle cx="172.662" cy="87.8" r="12.012" style="fill:#898992" transform="matrix(0 .2357 -.41864 0 627.366 300.396)"/><circle cx="172.662" cy="87.8" r="12.012" style="fill:#898992" transform="matrix(0 .2357 -.41864 0 596.04 300.396)"/><circle cx="172.662" cy="87.8" r="12.012" style="fill:#898992" transform="matrix(0 .2357 -.41864 0 627.366 281.431)"/><circle cx="172.662" cy="87.8" r="12.012" style="fill:#898992" transform="matrix(0 .2357 -.41864 0 596.04 281.431)"/><circle cx="172.662" cy="87.8" r="12.012" style="fill:#f7e400" transform="matrix(0 .2357 .41864 0 577.259 299.923)"/><circle cx="172.662" cy="87.8" r="12.012" style="fill:#f7e400" transform="matrix(0 .2357 .41864 0 608.846 281.66)"/><circle cx="172.662" cy="87.8" r="12.012" style="fill:#f7e400" transform="matrix(0 .2357 .41864 0 593.138 290.558)"/><path d="M430.929 340.084c0-5.689-8.79-10.308-19.618-10.308H254.36c-10.828 0-19.618 4.619-19.618 10.308v185.547c0 5.689 8.79 10.308 19.618 10.308h156.951c10.828 0 19.618-4.619 19.618-10.308V340.084Z" style="fill:#fff" transform="matrix(0 -.16034 .54203 0 -4.367 385.017)"/><path d="M179.97 314.036h100.572c4.934 0 8.94 2.255 8.94 5.033v25.165c0 2.777-4.006 5.033-8.94 5.033H179.969c-4.933 0-8.94-2.256-8.94-5.033v-25.165c0-2.778 4.007-5.033 8.94-5.033Zm0 1.887c-3.084 0-5.588 1.41-5.588 3.146v25.165c0 1.736 2.504 3.145 5.587 3.145h100.573c3.084 0 5.587-1.41 5.587-3.145v-25.165c0-1.736-2.503-3.146-5.587-3.146H179.969Z"/><path d="M46.105 126.665h78.078" style="fill:none;stroke:#000;stroke-width:6.12px" transform="matrix(0 -.30216 .55874 0 160.025 357.353)"/><circle cx="172.662" cy="87.8" r="12.012" transform="matrix(0 -.2357 .41864 0 221.159 372.346)"/><circle cx="172.662" cy="87.8" r="12.012" style="fill:#95352e" transform="matrix(0 -.2357 -.41864 0 255.526 362.78)"/><circle cx="172.662" cy="87.8" r="12.012" style="fill:#95352e" transform="matrix(0 -.2357 -.41864 0 223.57 381.428)"/><path d="M430.929 340.084c0-5.689-8.79-10.308-19.618-10.308H254.36c-10.828 0-19.618 4.619-19.618 10.308v185.547c0 5.689 8.79 10.308 19.618 10.308h156.951c10.828 0 19.618-4.619 19.618-10.308V340.084Z" style="fill:#fff" transform="matrix(.2848 0 0 .30516 228.767 131.884)"/><path d="M354.847 235.663v56.621c0 2.778-4.006 5.033-8.94 5.033h-44.699c-4.934 0-8.94-2.255-8.94-5.033v-56.62c0-2.778 4.006-5.034 8.94-5.034h44.7c4.933 0 8.939 2.256 8.939 5.033Zm-3.353 0c0-1.736-2.503-3.145-5.587-3.145h-44.699c-3.084 0-5.587 1.41-5.587 3.145v56.621c0 1.737 2.503 3.146 5.587 3.146h44.7c3.083 0 5.586-1.41 5.586-3.146v-56.62Z"/><path d="M46.105 126.665h78.078" style="fill:none;stroke:#000;stroke-width:6.12px" transform="matrix(.53671 0 0 .31456 277.905 224.435)"/><circle cx="172.662" cy="87.8" r="12.012" transform="matrix(.41864 0 0 .2357 251.274 258.852)"/><circle cx="172.662" cy="87.8" r="12.012" style="fill:#0e7746" transform="matrix(.41864 0 0 -.2357 268.266 278.015)"/><circle cx="172.662" cy="87.8" r="12.012" style="fill:#0e7746" transform="matrix(.41864 0 0 -.2357 251.274 268.924)"/><circle cx="172.662" cy="87.8" r="12.012" style="fill:#0e7746" transform="matrix(.41864 0 0 -.2357 268.266 260.378)"/><circle cx="172.662" cy="87.8" r="12.012" style="fill:#0e7746" transform="matrix(.41864 0 0 -.2357 234.58 278.015)"/><circle cx="172.662" cy="87.8" r="12.012" style="fill:#0e7746" transform="matrix(.41864 0 0 -.2357 234.58 260.378)"/><path d="M430.929 340.084c0-5.689-8.79-10.308-19.618-10.308H254.36c-10.828 0-19.618 4.619-19.618 10.308v185.547c0 5.689 8.79 10.308 19.618 10.308h156.951c10.828 0 19.618-4.619 19.618-10.308V340.084Z" style="fill:#fff" transform="matrix(0 .16034 -.54203 0 558.181 158.464)"/><path d="M373.845 229.445H273.272c-4.934 0-8.94-2.255-8.94-5.033v-25.165c0-2.777 4.006-5.033 8.94-5.033h100.573c4.933 0 8.94 2.256 8.94 5.033v25.165c0 2.778-4.007 5.033-8.94 5.033Zm0-1.887c3.083 0 5.587-1.41 5.587-3.146v-25.165c0-1.736-2.504-3.145-5.587-3.145H273.272c-3.084 0-5.587 1.41-5.587 3.145v25.165c0 1.736 2.503 3.146 5.587 3.146h100.573Z"/><path d="M46.105 126.665h78.078" style="fill:none;stroke:#000;stroke-width:6.12px" transform="matrix(0 .30216 -.55874 0 393.789 186.128)"/><circle cx="172.662" cy="87.8" r="12.012" transform="matrix(0 .2357 -.41864 0 332.655 171.135)"/><circle cx="172.662" cy="87.8" r="12.012" style="fill:#0e7746" transform="matrix(0 .2357 .41864 0 298.618 180.701)"/><circle cx="172.662" cy="87.8" r="12.012" style="fill:#0e7746" transform="matrix(0 .2357 .41864 0 314.766 171.135)"/><circle cx="172.662" cy="87.8" r="12.012" style="fill:#0e7746" transform="matrix(0 .2357 .41864 0 329.945 180.701)"/><circle cx="172.662" cy="87.8" r="12.012" style="fill:#0e7746" transform="matrix(0 .2357 .41864 0 298.618 161.736)"/><circle cx="172.662" cy="87.8" r="12.012" style="fill:#0e7746" transform="matrix(0 .2357 .41864 0 329.945 161.736)"/><circle cx="172.662" cy="87.8" r="12.012" style="fill:#0e7746" transform="matrix(0 -.2357 -.41864 0 348.498 242.958)"/><circle cx="172.662" cy="87.8" r="12.012" style="fill:#0e7746" transform="matrix(0 -.2357 -.41864 0 332.35 252.524)"/><circle cx="172.662" cy="87.8" r="12.012" style="fill:#0e7746" transform="matrix(0 -.2357 -.41864 0 317.171 242.958)"/><circle cx="172.662" cy="87.8" r="12.012" style="fill:#0e7746" transform="matrix(0 -.2357 -.41864 0 348.498 261.923)"/><circle cx="172.662" cy="87.8" r="12.012" style="fill:#0e7746" transform="matrix(0 -.2357 -.41864 0 317.171 261.923)"/><path d="M430.929 340.084c0-5.689-8.79-10.308-19.618-10.308H254.36c-10.828 0-19.618 4.619-19.618 10.308v185.547c0 5.689 8.79 10.308 19.618 10.308h156.951c10.828 0 19.618-4.619 19.618-10.308V340.084Z" style="fill:#fff" transform="matrix(.2848 0 0 .30516 228.768 27.598)"/><path d="M354.847 131.377v56.621c0 2.778-4.005 5.033-8.94 5.033H301.21c-4.934 0-8.94-2.255-8.94-5.033v-56.62c0-2.778 4.006-5.034 8.94-5.034h44.699c4.934 0 8.94 2.256 8.94 5.033Zm-3.352 0c0-1.736-2.504-3.145-5.587-3.145h-44.7c-3.083 0-5.587 1.41-5.587 3.145v56.621c0 1.737 2.504 3.146 5.588 3.146h44.699c3.083 0 5.587-1.41 5.587-3.146v-56.62Z"/><path d="M46.105 126.665h78.078" style="fill:none;stroke:#000;stroke-width:6.12px" transform="matrix(.53671 0 0 .31456 277.906 120.149)"/><circle cx="172.662" cy="87.8" r="12.012" style="fill:#0e7746" transform="matrix(.41864 0 0 .2357 268.266 145.647)"/><circle cx="172.662" cy="87.8" r="12.012" style="fill:#0e7746" transform="matrix(.41864 0 0 .2357 251.275 154.738)"/><circle cx="172.662" cy="87.8" r="12.012" style="fill:#0e7746" transform="matrix(.41864 0 0 .2357 268.266 163.284)"/><circle cx="172.662" cy="87.8" r="12.012" style="fill:#0e7746" transform="matrix(.41864 0 0 .2357 234.58 145.647)"/><circle cx="172.662" cy="87.8" r="12.012" style="fill:#0e7746" transform="matrix(.41864 0 0 .2357 234.58 163.284)"/><path d="M524.073 34.202c0-9.167-8.739-16.61-19.503-16.61H296.664c-10.764 0-19.502 7.443-19.502 16.61v77.516c0 9.167 8.738 16.61 19.502 16.61H504.57c10.764 0 19.503-7.443 19.503-16.61V34.202Z" style="fill:#badfff" transform="matrix(.54258 0 0 .35864 -94.936 59.304)"/><text x="491.783" y="102.235" style="font-family:&quot;SourceSansPro-Bold&quot;,&quot;Source Sans Pro&quot;,sans-serif;font-weight:700;font-size:48px" transform="matrix(.55874 0 0 .31456 -204.185 51.039)">t<tspan x="509.303px 534.695px 552.119px" y="102.235px 102.235px 102.235px">ota</tspan>l: 5</text><text x="491.783" y="150.235" style="font-family:&quot;SourceSansPro-Bold&quot;,&quot;Source Sans Pro&quot;,sans-serif;font-weight:700;font-size:48px" transform="matrix(.55874 0 0 .31456 -204.185 51.039)">sc<tspan x="534.119px 560.759px 579.383px" y="150.235px 150.235px 150.235px">ore</tspan>: 5</text><path d="m193.993 283.385 6.687 20.582h21.641l-17.508 12.72 6.687 20.581-17.507-12.72-17.508 12.72 6.687-20.581-17.507-12.72h21.64l6.688-20.582Z" style="fill:#144073" transform="matrix(.55874 0 0 .31456 36.846 234.035)"/><path d="m193.993 283.385 6.687 20.582h21.641l-17.508 12.72 6.687 20.581-17.507-12.72-17.508 12.72 6.687-20.581-17.507-12.72h21.64l6.688-20.582Z" style="fill:#144073" transform="matrix(.55874 0 0 .31456 579.374 234.035)"/><path d="m193.993 283.385 6.687 20.582h21.641l-17.508 12.72 6.687 20.581-17.507-12.72-17.508 12.72 6.687-20.581-17.507-12.72h21.64l6.688-20.582Z" style="fill:#144073" transform="matrix(.55874 0 0 .31456 215.167 13.201)"/><text x="1140.08" y="455.698" style="font-family:&quot;ShareTechMono-Regular&quot;,&quot;Share Tech Mono&quot;,monospace;font-size:48px;fill:#144073" transform="matrix(.55874 0 0 .31456 -499.388 173.657)">2</text><text x="1140.08" y="455.698" style="font-family:&quot;ShareTechMono-Regular&quot;,&quot;Share Tech Mono&quot;,monospace;font-size:48px;fill:#144073" transform="matrix(.55874 0 0 .31456 43.14 173.657)">3</text><text x="1140.08" y="455.698" style="font-family:&quot;ShareTechMono-Regular&quot;,&quot;Share Tech Mono&quot;,monospace;font-size:48px;fill:#144073" transform="matrix(.55874 0 0 .31456 -289.387 -25.783)">0</text></g></g></svg>