<svg viewBox="0 0 1304 1389" xmlns="http://www.w3.org/2000/svg" xml:space="preserve" style="fill-rule:evenodd;clip-rule:evenodd;stroke-linecap:round;stroke-linejoin:round;stroke-miterlimit:1.5"><g transform="matrix(1.78975 0 0 3.92928 -88.985 -246.938)"><path style="fill:none" d="M49.719 62.846h728.322v353.353H49.719z"/><clipPath id="a"><path d="M49.719 62.846h728.322v353.353H49.719z"/></clipPath><g clip-path="url(#a)"><path d="M430.929 340.084c0-5.689-8.79-10.308-19.618-10.308H254.36c-10.828 0-19.618 4.619-19.618 10.308v185.547c0 5.689 8.79 10.308 19.618 10.308h156.951c10.828 0 19.618-4.619 19.618-10.308V340.084Z" style="fill:#fff" transform="matrix(0 .12972 .54203 0 181.67 237.15)"/><path d="M366.007 294.578c-4.933 0-8.94-1.824-8.94-4.072v-20.36c0-2.247 4.007-4.072 8.94-4.072H466.58c4.934 0 8.94 1.825 8.94 4.072v20.36c0 2.248-4.006 4.072-8.94 4.072H366.007Zm0-1.527H466.58c3.084 0 5.587-1.14 5.587-2.545v-20.36c0-1.404-2.503-2.545-5.587-2.545H366.007c-3.083 0-5.587 1.14-5.587 2.545v20.36c0 1.405 2.504 2.545 5.587 2.545Z"/><path d="M46.105 126.665h78.078" style="fill:none;stroke:#000;stroke-width:6.12px" transform="matrix(0 .24447 .55874 0 346.063 259.532)"/><circle cx="172.662" cy="87.8" r="12.012" style="fill:#898992" transform="matrix(0 .19069 .41864 0 391.34 255.04)"/><circle cx="172.662" cy="87.8" r="12.012" style="fill:#898992" transform="matrix(0 .19069 .41864 0 422.667 255.04)"/><circle cx="172.662" cy="87.8" r="12.012" style="fill:#898992" transform="matrix(0 .19069 .41864 0 391.34 239.695)"/><circle cx="172.662" cy="87.8" r="12.012" style="fill:#898992" transform="matrix(0 .19069 .41864 0 422.667 239.695)"/><circle cx="172.662" cy="87.8" r="12.012" transform="matrix(0 .19069 -.41864 0 425.391 247.401)"/><path d="m70.922 877.042-22.5-22.5 22.5-22.5" style="fill:none;stroke:#000;stroke-width:15px;stroke-linejoin:miter;stroke-miterlimit:10" transform="matrix(.55874 0 0 .2545 49.72 62.845)"/><path d="M112.816 854.542H48.422" style="fill:none;stroke:#000;stroke-width:15px" transform="matrix(.55874 0 0 .2545 49.72 62.845)"/><path d="m467.604 49.868 22.5-22.5 22.5 22.5" style="fill:none;stroke:#000;stroke-width:15px;stroke-linejoin:miter;stroke-miterlimit:10" transform="matrix(.55874 0 0 .2545 49.72 62.846)"/><path d="M490.104 91.762V27.368" style="fill:none;stroke:#000;stroke-width:15px" transform="matrix(.55874 0 0 .2545 49.72 62.846)"/><path d="m512.604 1326.67-22.5 22.5-22.5-22.5" style="fill:none;stroke:#000;stroke-width:15px;stroke-linejoin:miter;stroke-miterlimit:10" transform="matrix(.55874 0 0 .2545 49.72 62.846)"/><path d="M490.104 1284.78v64.39" style="fill:none;stroke:#000;stroke-width:15px" transform="matrix(.55874 0 0 .2545 49.72 62.846)"/><path d="m1238.49 832.042 22.5 22.5-22.5 22.5" style="fill:none;stroke:#000;stroke-width:15px;stroke-linejoin:miter;stroke-miterlimit:10" transform="matrix(.55874 0 0 .2545 49.718 62.845)"/><path d="M1196.6 854.542h64.39" style="fill:none;stroke:#000;stroke-width:15px" transform="matrix(.55874 0 0 .2545 49.718 62.845)"/><path d="M430.929 340.084c0-5.689-8.79-10.308-19.618-10.308H254.36c-10.828 0-19.618 4.619-19.618 10.308v185.547c0 5.689 8.79 10.308 19.618 10.308h156.951c10.828 0 19.618-4.619 19.618-10.308V340.084Z" style="fill:#fff" transform="matrix(.2848 0 0 .2469 228.767 173.458)"/><path d="M354.847 257.422v45.81c0 2.247-4.006 4.072-8.94 4.072h-44.699c-4.934 0-8.94-1.825-8.94-4.072v-45.81c0-2.248 4.006-4.072 8.94-4.072h44.7c4.933 0 8.939 1.824 8.939 4.072Zm-3.353 0c0-1.405-2.503-2.545-5.587-2.545h-44.699c-3.084 0-5.587 1.14-5.587 2.545v45.81c0 1.404 2.503 2.545 5.587 2.545h44.7c3.083 0 5.586-1.14 5.586-2.545v-45.81Z"/><path d="M46.105 126.665h78.078" style="fill:none;stroke:#000;stroke-width:6.12px" transform="matrix(.53671 0 0 .2545 277.905 248.337)"/><circle cx="172.662" cy="87.8" r="12.012" transform="matrix(.41864 0 0 .19069 251.274 276.183)"/><circle cx="172.662" cy="87.8" r="12.012" transform="matrix(.41864 0 0 -.19069 251.274 284.47)"/><path d="M430.929 340.084c0-5.689-8.79-10.308-19.618-10.308H254.36c-10.828 0-19.618 4.619-19.618 10.308v185.547c0 5.689 8.79 10.308 19.618 10.308h156.951c10.828 0 19.618-4.619 19.618-10.308V340.084Z" style="fill:#fff" transform="matrix(.2848 0 0 .2469 414.697 173.458)"/><path d="M540.777 257.422v45.81c0 2.247-4.006 4.072-8.94 4.072h-44.7c-4.933 0-8.939-1.825-8.939-4.072v-45.81c0-2.248 4.006-4.072 8.94-4.072h44.699c4.934 0 8.94 1.824 8.94 4.072Zm-3.353 0c0-1.405-2.503-2.545-5.587-2.545h-44.7c-3.083 0-5.586 1.14-5.586 2.545v45.81c0 1.404 2.503 2.545 5.587 2.545h44.699c3.084 0 5.587-1.14 5.587-2.545v-45.81Z"/><path d="M46.105 126.665h78.078" style="fill:none;stroke:#000;stroke-width:6.12px" transform="matrix(.53671 0 0 .2545 463.835 248.337)"/><circle cx="172.662" cy="87.8" r="12.012" style="fill:#898992" transform="matrix(.41864 0 0 .19069 453.972 268.96)"/><circle cx="172.662" cy="87.8" r="12.012" style="fill:#898992" transform="matrix(.41864 0 0 .19069 453.972 283.23)"/><circle cx="172.662" cy="87.8" r="12.012" style="fill:#898992" transform="matrix(.41864 0 0 .19069 420.285 268.96)"/><circle cx="172.662" cy="87.8" r="12.012" style="fill:#898992" transform="matrix(.41864 0 0 .19069 420.285 283.23)"/><circle cx="172.662" cy="87.8" r="12.012" style="fill:#898992" transform="matrix(.41864 0 0 -.19069 453.972 291.693)"/><circle cx="172.662" cy="87.8" r="12.012" style="fill:#898992" transform="matrix(.41864 0 0 -.19069 453.972 277.424)"/><circle cx="172.662" cy="87.8" r="12.012" style="fill:#898992" transform="matrix(.41864 0 0 -.19069 420.285 291.693)"/><circle cx="172.662" cy="87.8" r="12.012" style="fill:#898992" transform="matrix(.41864 0 0 -.19069 420.285 277.424)"/><path d="M430.929 340.084c0-5.689-8.79-10.308-19.618-10.308H254.36c-10.828 0-19.618 4.619-19.618 10.308v185.547c0 5.689 8.79 10.308 19.618 10.308h156.951c10.828 0 19.618-4.619 19.618-10.308V340.084Z" style="fill:#fff" transform="matrix(0 .12972 -.54203 0 837.035 237.15)"/><path d="M652.699 294.578H552.126c-4.934 0-8.94-1.824-8.94-4.072v-20.36c0-2.247 4.006-4.072 8.94-4.072h100.573c4.933 0 8.94 1.825 8.94 4.072v20.36c0 2.248-4.007 4.072-8.94 4.072Zm0-1.527c3.083 0 5.587-1.14 5.587-2.545v-20.36c0-1.404-2.504-2.545-5.587-2.545H552.126c-3.084 0-5.587 1.14-5.587 2.545v20.36c0 1.405 2.503 2.545 5.587 2.545h100.573Z"/><path d="M46.105 126.665h78.078" style="fill:none;stroke:#000;stroke-width:6.12px" transform="matrix(0 .24447 -.55874 0 672.643 259.532)"/><circle cx="172.662" cy="87.8" r="12.012" style="fill:#898992" transform="matrix(0 .19069 -.41864 0 627.366 255.04)"/><circle cx="172.662" cy="87.8" r="12.012" style="fill:#898992" transform="matrix(0 .19069 -.41864 0 596.04 255.04)"/><circle cx="172.662" cy="87.8" r="12.012" style="fill:#898992" transform="matrix(0 .19069 -.41864 0 627.366 239.695)"/><circle cx="172.662" cy="87.8" r="12.012" style="fill:#898992" transform="matrix(0 .19069 -.41864 0 596.04 239.695)"/><circle cx="172.662" cy="87.8" r="12.012" style="fill:#f7e400" transform="matrix(0 .19069 .41864 0 577.259 254.656)"/><circle cx="172.662" cy="87.8" r="12.012" style="fill:#f7e400" transform="matrix(0 .19069 .41864 0 608.846 239.88)"/><circle cx="172.662" cy="87.8" r="12.012" style="fill:#f7e400" transform="matrix(0 .19069 .41864 0 593.138 247.08)"/><path d="M430.929 340.084c0-5.689-8.79-10.308-19.618-10.308H254.36c-10.828 0-19.618 4.619-19.618 10.308v185.547c0 5.689 8.79 10.308 19.618 10.308h156.951c10.828 0 19.618-4.619 19.618-10.308V340.084Z" style="fill:#fff" transform="matrix(0 -.12972 .54203 0 -4.367 323.502)"/><path d="M179.97 266.074h100.572c4.934 0 8.94 1.825 8.94 4.072v20.36c0 2.247-4.006 4.072-8.94 4.072H179.969c-4.933 0-8.94-1.825-8.94-4.072v-20.36c0-2.247 4.007-4.072 8.94-4.072Zm0 1.527c-3.084 0-5.588 1.14-5.588 2.545v20.36c0 1.405 2.504 2.545 5.587 2.545h100.573c3.084 0 5.587-1.14 5.587-2.545v-20.36c0-1.405-2.503-2.545-5.587-2.545H179.969Z"/><path d="M46.105 126.665h78.078" style="fill:none;stroke:#000;stroke-width:6.12px" transform="matrix(0 -.24447 .55874 0 160.025 301.12)"/><circle cx="172.662" cy="87.8" r="12.012" transform="matrix(0 -.19069 .41864 0 221.159 313.25)"/><circle cx="172.662" cy="87.8" r="12.012" style="fill:#95352e" transform="matrix(0 -.19069 -.41864 0 255.526 305.51)"/><circle cx="172.662" cy="87.8" r="12.012" style="fill:#95352e" transform="matrix(0 -.19069 -.41864 0 223.57 320.598)"/><path d="M430.929 340.084c0-5.689-8.79-10.308-19.618-10.308H254.36c-10.828 0-19.618 4.619-19.618 10.308v185.547c0 5.689 8.79 10.308 19.618 10.308h156.951c10.828 0 19.618-4.619 19.618-10.308V340.084Z" style="fill:#fff" transform="matrix(.2848 0 0 .2469 228.767 118.703)"/><path d="M354.847 202.667v45.81c0 2.247-4.006 4.072-8.94 4.072h-44.699c-4.934 0-8.94-1.825-8.94-4.072v-45.81c0-2.248 4.006-4.072 8.94-4.072h44.7c4.933 0 8.939 1.824 8.939 4.072Zm-3.353 0c0-1.405-2.503-2.545-5.587-2.545h-44.699c-3.084 0-5.587 1.14-5.587 2.545v45.81c0 1.404 2.503 2.545 5.587 2.545h44.7c3.083 0 5.586-1.14 5.586-2.545v-45.81Z"/><path d="M46.105 126.665h78.078" style="fill:none;stroke:#000;stroke-width:6.12px" transform="matrix(.53671 0 0 .2545 277.905 193.582)"/><circle cx="172.662" cy="87.8" r="12.012" transform="matrix(.41864 0 0 .19069 251.274 221.428)"/><circle cx="172.662" cy="87.8" r="12.012" style="fill:#0e7746" transform="matrix(.41864 0 0 -.19069 268.266 236.932)"/><circle cx="172.662" cy="87.8" r="12.012" style="fill:#0e7746" transform="matrix(.41864 0 0 -.19069 251.274 229.576)"/><circle cx="172.662" cy="87.8" r="12.012" style="fill:#0e7746" transform="matrix(.41864 0 0 -.19069 268.266 222.662)"/><circle cx="172.662" cy="87.8" r="12.012" style="fill:#0e7746" transform="matrix(.41864 0 0 -.19069 234.58 236.932)"/><circle cx="172.662" cy="87.8" r="12.012" style="fill:#0e7746" transform="matrix(.41864 0 0 -.19069 234.58 222.662)"/><path d="M430.929 340.084c0-5.689-8.79-10.308-19.618-10.308H254.36c-10.828 0-19.618 4.619-19.618 10.308v185.547c0 5.689 8.79 10.308 19.618 10.308h156.951c10.828 0 19.618-4.619 19.618-10.308V340.084Z" style="fill:#fff" transform="matrix(0 .12972 -.54203 0 558.181 140.207)"/><path d="M373.845 197.635H273.272c-4.934 0-8.94-1.825-8.94-4.072v-20.36c0-2.247 4.006-4.072 8.94-4.072h100.573c4.933 0 8.94 1.825 8.94 4.072v20.36c0 2.247-4.007 4.072-8.94 4.072Zm0-1.527c3.083 0 5.587-1.14 5.587-2.545v-20.36c0-1.405-2.504-2.545-5.587-2.545H273.272c-3.084 0-5.587 1.14-5.587 2.545v20.36c0 1.405 2.503 2.545 5.587 2.545h100.573Z"/><path d="M46.105 126.665h78.078" style="fill:none;stroke:#000;stroke-width:6.12px" transform="matrix(0 .24447 -.55874 0 393.789 162.589)"/><circle cx="172.662" cy="87.8" r="12.012" transform="matrix(0 .19069 -.41864 0 332.655 150.458)"/><circle cx="172.662" cy="87.8" r="12.012" style="fill:#0e7746" transform="matrix(0 .19069 .41864 0 298.618 158.198)"/><circle cx="172.662" cy="87.8" r="12.012" style="fill:#0e7746" transform="matrix(0 .19069 .41864 0 314.766 150.459)"/><circle cx="172.662" cy="87.8" r="12.012" style="fill:#0e7746" transform="matrix(0 .19069 .41864 0 329.945 158.198)"/><circle cx="172.662" cy="87.8" r="12.012" style="fill:#0e7746" transform="matrix(0 .19069 .41864 0 298.618 142.854)"/><circle cx="172.662" cy="87.8" r="12.012" style="fill:#0e7746" transform="matrix(0 .19069 .41864 0 329.945 142.854)"/><circle cx="172.662" cy="87.8" r="12.012" style="fill:#0e7746" transform="matrix(0 -.19069 -.41864 0 348.498 208.568)"/><circle cx="172.662" cy="87.8" r="12.012" style="fill:#0e7746" transform="matrix(0 -.19069 -.41864 0 332.35 216.308)"/><circle cx="172.662" cy="87.8" r="12.012" style="fill:#0e7746" transform="matrix(0 -.19069 -.41864 0 317.171 208.568)"/><circle cx="172.662" cy="87.8" r="12.012" style="fill:#0e7746" transform="matrix(0 -.19069 -.41864 0 348.498 223.912)"/><circle cx="172.662" cy="87.8" r="12.012" style="fill:#0e7746" transform="matrix(0 -.19069 -.41864 0 317.171 223.912)"/><path d="M430.929 340.084c0-5.689-8.79-10.308-19.618-10.308H254.36c-10.828 0-19.618 4.619-19.618 10.308v185.547c0 5.689 8.79 10.308 19.618 10.308h156.951c10.828 0 19.618-4.619 19.618-10.308V340.084Z" style="fill:#fff" transform="matrix(.2848 0 0 .2469 228.768 34.329)"/><path d="M354.847 118.293v45.81c0 2.247-4.005 4.072-8.94 4.072H301.21c-4.934 0-8.94-1.825-8.94-4.072v-45.81c0-2.248 4.006-4.072 8.94-4.072h44.699c4.934 0 8.94 1.824 8.94 4.072Zm-3.352 0c0-1.405-2.504-2.545-5.587-2.545h-44.7c-3.083 0-5.587 1.14-5.587 2.545v45.81c0 1.404 2.504 2.545 5.588 2.545h44.699c3.083 0 5.587-1.14 5.587-2.545v-45.81Z"/><path d="M46.105 126.665h78.078" style="fill:none;stroke:#000;stroke-width:6.12px" transform="matrix(.53671 0 0 .2545 277.906 109.208)"/><circle cx="172.662" cy="87.8" r="12.012" style="fill:#0e7746" transform="matrix(.41864 0 0 .19069 268.266 129.838)"/><circle cx="172.662" cy="87.8" r="12.012" style="fill:#0e7746" transform="matrix(.41864 0 0 .19069 251.275 137.193)"/><circle cx="172.662" cy="87.8" r="12.012" style="fill:#0e7746" transform="matrix(.41864 0 0 .19069 268.266 144.107)"/><circle cx="172.662" cy="87.8" r="12.012" style="fill:#0e7746" transform="matrix(.41864 0 0 .19069 234.58 129.838)"/><circle cx="172.662" cy="87.8" r="12.012" style="fill:#0e7746" transform="matrix(.41864 0 0 .19069 234.58 144.107)"/><path d="M524.073 34.202c0-9.167-8.739-16.61-19.503-16.61H296.664c-10.764 0-19.502 7.443-19.502 16.61v77.516c0 9.167 8.738 16.61 19.502 16.61H504.57c10.764 0 19.503-7.443 19.503-16.61V34.202Z" style="fill:#badfff" transform="matrix(.54258 0 0 .29016 -94.936 59.98)"/><text x="491.783" y="102.235" style="font-family:&quot;SourceSansPro-Bold&quot;,&quot;Source Sans Pro&quot;,sans-serif;font-weight:700;font-size:48px" transform="matrix(.55874 0 0 .2545 -204.185 53.293)">t<tspan x="509.303px 534.695px 552.119px" y="102.235px 102.235px 102.235px">ota</tspan>l: 8</text><text x="491.783" y="150.235" style="font-family:&quot;SourceSansPro-Bold&quot;,&quot;Source Sans Pro&quot;,sans-serif;font-weight:700;font-size:48px" transform="matrix(.55874 0 0 .2545 -204.185 53.293)">sc<tspan x="534.119px 560.759px 579.383px" y="150.235px 150.235px 150.235px">ore</tspan>: 0</text><path d="m193.993 283.385 6.687 20.582h21.641l-17.508 12.72 6.687 20.581-17.507-12.72-17.508 12.72 6.687-20.581-17.507-12.72h21.64l6.688-20.582Z" style="fill:#144073" transform="matrix(.55874 0 0 .2545 36.846 201.348)"/><path d="m193.993 283.385 6.687 20.582h21.641l-17.508 12.72 6.687 20.581-17.507-12.72-17.508 12.72 6.687-20.581-17.507-12.72h21.64l6.688-20.582Z" style="fill:#144073" transform="matrix(.55874 0 0 .2545 579.374 201.348)"/><path d="m193.993 283.385 6.687 20.582h21.641l-17.508 12.72 6.687 20.581-17.507-12.72-17.508 12.72 6.687-20.581-17.507-12.72h21.64l6.688-20.582Z" style="fill:#144073" transform="matrix(.55874 0 0 .2545 215.167 22.171)"/><path d="m193.993 283.385 6.687 20.582h21.641l-17.508 12.72 6.687 20.581-17.507-12.72-17.508 12.72 6.687-20.581-17.507-12.72h21.64l6.688-20.582Z" style="fill:#144073" transform="matrix(.55874 0 0 .2545 215.167 295.588)"/><text x="1140.08" y="455.698" style="font-family:&quot;ShareTechMono-Regular&quot;,&quot;Share Tech Mono&quot;,monospace;font-size:48px;fill:#144073" transform="matrix(.55874 0 0 .2545 -499.388 152.499)">2</text><text x="1140.08" y="455.698" style="font-family:&quot;ShareTechMono-Regular&quot;,&quot;Share Tech Mono&quot;,monospace;font-size:48px;fill:#144073" transform="matrix(.55874 0 0 .2545 43.14 152.499)">3</text><text x="1140.08" y="455.698" style="font-family:&quot;ShareTechMono-Regular&quot;,&quot;Share Tech Mono&quot;,monospace;font-size:48px;fill:#144073" transform="matrix(.55874 0 0 .2545 -289.387 -9.37)">0</text><text x="1140.08" y="455.698" style="font-family:&quot;ShareTechMono-Regular&quot;,&quot;Share Tech Mono&quot;,monospace;font-size:48px;fill:#144073" transform="matrix(.55874 0 0 .2545 -289.387 264.048)">3</text><path d="M430.929 340.084c0-5.689-8.79-10.308-19.618-10.308H254.36c-10.828 0-19.618 4.619-19.618 10.308v185.547c0 5.689 8.79 10.308 19.618 10.308h156.951c10.828 0 19.618-4.619 19.618-10.308V340.084Z" style="fill:#fff" transform="matrix(-.2848 0 0 -.2469 418.348 442.31)"/><path d="M292.268 358.346v-45.81c0-2.247 4.006-4.072 8.94-4.072h44.699c4.934 0 8.94 1.825 8.94 4.072v45.81c0 2.248-4.006 4.072-8.94 4.072h-44.7c-4.933 0-8.939-1.824-8.939-4.072Zm3.353 0c0 1.405 2.503 2.545 5.587 2.545h44.699c3.084 0 5.587-1.14 5.587-2.545v-45.81c0-1.404-2.503-2.545-5.587-2.545h-44.7c-3.083 0-5.586 1.14-5.586 2.545v45.81Z"/><path d="M46.105 126.665h78.078" style="fill:none;stroke:#000;stroke-width:6.12px" transform="matrix(-.53671 0 0 -.2545 369.21 367.431)"/><circle cx="172.662" cy="87.8" r="12.012" transform="matrix(-.41864 0 0 -.19069 395.841 339.585)"/><circle cx="172.662" cy="87.8" r="12.012" style="fill:#f7e400" transform="matrix(-.41864 0 0 .19069 379.913 323.984)"/><circle cx="172.662" cy="87.8" r="12.012" style="fill:#f7e400" transform="matrix(-.41864 0 0 .19069 412.354 338.372)"/><circle cx="172.662" cy="87.8" r="12.012" style="fill:#f7e400" transform="matrix(-.41864 0 0 .19069 396.548 331.217)"/></g></g></svg>